<?xml version="1.0" encoding="UTF-8" standalone="no"?>
<svg
   xmlns:dc="http://purl.org/dc/elements/1.1/"
   xmlns:cc="http://creativecommons.org/ns#"
   xmlns:rdf="http://www.w3.org/1999/02/22-rdf-syntax-ns#"
   xmlns:svg="http://www.w3.org/2000/svg"
   xmlns="http://www.w3.org/2000/svg"
   viewBox="0 0 10431.496 3401.5747"
   height="3401.5747"
   width="10431.496"
   xml:space="preserve"
   id="svg2"
   version="1.1"><metadata
     id="metadata8"><rdf:RDF><cc:Work
         rdf:about=""><dc:format>image/svg+xml</dc:format><dc:type
           rdf:resource="http://purl.org/dc/dcmitype/StillImage" /></cc:Work></rdf:RDF></metadata><defs
     id="defs6" /><g
     transform="matrix(1.3333333,0,0,-1.3333333,0,3401.5748)"
     id="g10"><path
       id="path12"
       style="fill:#373535;fill-opacity:1;fill-rule:nonzero;stroke:none"
       d="m 1074.9472,611.7253 h 70.2978 l 89.1275,221.2492 h -80.9679 l -42.6807,-123.3346 -42.6807,123.3346 h -82.2235 z m 268.9518,-3.1385 c 67.7871,0 120.1963,50.8405 120.1963,114.5478 v 0.6275 c 0,63.7073 -51.7816,113.9199 -119.5687,113.9199 -67.7872,0 -120.1966,-50.8402 -120.1966,-114.5474 v -0.6276 c 0,-63.7076 51.7818,-113.9202 119.569,-113.9202 z m 0.6276,64.9627 c -28.2447,0 -46.1327,23.5372 -46.1327,49.5851 v 0.6275 c 0,25.7341 17.5742,48.9575 45.5051,48.9575 28.2447,0 46.133,-23.5375 46.133,-49.585 v -0.6276 c 0,-25.7341 -17.5745,-48.9575 -45.5054,-48.9575 z m 139.6539,-60.2552 h 176.6857 v 62.7659 h -103.2497 v 156.9143 h -73.436 z m 292.4887,-4.3934 c 65.5903,0 109.2126,29.4996 109.2126,104.5049 v 119.5687 h -74.6912 V 711.2089 c 0,-26.6754 -14.1225,-37.3456 -33.8938,-37.3456 -19.7711,0 -33.8936,11.6116 -33.8936,38.9149 v 120.1963 h -74.6912 v -121.138 c 0,-72.8082 42.3669,-102.9356 107.9572,-102.9356 z m 132.436,4.3934 h 71.8671 v 108.8986 l 50.5264,-78.1433 h 1.2552 l 50.5264,78.1433 V 613.2943 h 73.1223 v 219.6802 h -76.5743 l -47.0744,-77.2016 -47.0744,77.2016 h -76.5743 z m 272.4035,0 h 188.9252 v 60.2552 h -116.7443 v 23.851 h 107.3296 v 53.0371 h -107.3296 v 22.282 h 115.1753 v 60.2549 h -187.3562 z m 264.8722,0 h 73.436 v 157.5422 h 64.6486 v 62.138 h -202.7336 v -62.138 h 64.649 z m 154.7177,0 h 73.4361 v 62.7659 h 15.6917 l 41.4253,-62.7659 h 83.7924 l -51.1541,74.6912 c 26.6755,12.867 43.3083,35.1491 43.3083,67.1596 v 0.6278 c 0,22.5956 -6.9043,38.9146 -20.0851,52.0954 -15.3777,15.3777 -40.1701,25.1062 -79.0847,25.1062 h -107.3299 z m 73.4361,115.1753 v 42.9948 h 32.0105 c 16.9469,0 27.9309,-6.9046 27.9309,-21.0268 V 749.81 c 0,-13.4949 -10.6699,-21.3404 -28.2444,-21.3404 z m 151.5795,-115.1753 h 73.4361 v 219.6802 h -73.4361 z m 208.069,-4.7075 c 54.606,0 85.3614,26.6754 103.8773,59.3135 l -60.569,34.2077 c -9.1009,-16.3193 -20.7128,-27.6171 -41.4255,-27.6171 -24.1648,0 -41.1115,20.0852 -41.1115,48.6437 v 0.6275 c 0,26.3617 16.3191,48.0158 41.1115,48.0158 20.0851,0 31.697,-10.9839 39.8565,-26.6754 l 60.569,35.4628 c -18.5159,33.5798 -51.1543,57.1167 -99.4839,57.1167 -65.5903,0 -116.7446,-48.9571 -116.7446,-114.5474 v -0.6276 c 0,-68.101 53.0371,-113.9202 113.9202,-113.9202 z m 306.6111,0 c 54.6061,0 85.3614,26.6754 103.8776,59.3135 l -60.569,34.2077 c -9.1009,-16.3193 -20.713,-27.6171 -41.4258,-27.6171 -24.1645,0 -41.1111,20.0852 -41.1111,48.6437 v 0.6275 c 0,26.3617 16.3187,48.0158 41.1111,48.0158 20.0852,0 31.697,-10.9839 39.8565,-26.6754 l 60.569,35.4628 c -18.5159,33.5798 -51.154,57.1167 -99.4838,57.1167 -65.5903,0 -116.7446,-48.9571 -116.7446,-114.5474 v -0.6276 c 0,-68.101 53.0373,-113.9202 113.9201,-113.9202 z m 98.2284,4.7075 h 78.4574 l 11.298,29.4999 h 76.8884 l 11.6115,-29.4999 h 79.7122 l -92.5792,221.2498 h -72.8084 z m 108.2713,81.5956 20.0852,53.3511 20.0851,-53.3511 z m 158.7977,-81.5956 h 176.6857 v 62.7659 h -103.2497 v 156.9143 h -73.436 z m 193.3189,0 h 73.436 v 219.6802 h -73.436 z m 99.1701,0 h 121.7659 c 55.5477,0 84.42,25.734 84.42,60.8828 v 0.6279 c 0,30.1274 -18.2022,45.1913 -46.4469,53.3508 23.5372,8.1593 39.2284,24.1648 39.2284,50.2127 v 0.6278 c 0,15.0636 -5.6486,26.3614 -13.4943,34.2071 -12.867,12.8671 -32.0108,19.7711 -62.4524,19.7711 h -123.0207 z m 71.5532,133.3772 v 30.7553 h 31.6965 c 15.6914,0 23.5372,-5.3351 23.5372,-15.0636 v -0.6279 c 0,-9.7285 -7.5317,-15.0638 -23.2234,-15.0638 z m 0,-77.8295 v 32.6381 h 37.0315 c 16.0056,0 23.8513,-6.5902 23.8513,-16.0052 v -0.6276 c 0,-9.415 -8.1598,-16.0053 -24.165,-16.0053 z m 150.6376,-55.5477 h 73.4363 v 62.7659 h 15.6915 l 41.4252,-62.7659 h 83.7924 l -51.154,74.6912 c 26.6755,12.867 43.3083,35.1491 43.3083,67.1596 v 0.6278 c 0,22.5956 -6.9043,38.9146 -20.0852,52.0954 -15.3776,15.3777 -40.17,25.1062 -79.0846,25.1062 h -107.3299 z m 73.4363,115.1753 v 42.9948 h 32.0103 c 16.9472,0 27.9309,-6.9046 27.9309,-21.0268 V 749.81 c 0,-13.4949 -10.6699,-21.3404 -28.2444,-21.3404 z m 127.1005,-115.1753 h 78.4573 l 11.298,29.4999 h 76.8884 l 11.6115,-29.4999 h 79.7122 l -92.5792,221.2498 h -72.8084 z m 108.2712,81.5956 20.0852,53.3511 20.0849,-53.3511 z m 186.7283,-81.5956 h 73.4361 v 157.5422 h 64.6486 v 62.138 h -202.7336 v -62.138 h 64.6489 z m 155.3457,0 h 73.436 v 219.6802 h -73.436 z m 213.7178,-4.7075 c 67.7872,0 120.1964,50.8405 120.1964,114.5478 v 0.6275 c 0,63.7073 -51.7816,113.9199 -119.5685,113.9199 -67.7874,0 -120.1969,-50.8402 -120.1969,-114.5474 v -0.6276 c 0,-63.7076 51.7819,-113.9202 119.569,-113.9202 z m 0.6279,64.9627 c -28.2447,0 -46.133,23.5372 -46.133,49.5851 v 0.6275 c 0,25.7341 17.5742,48.9575 45.5051,48.9575 28.2447,0 46.133,-23.5375 46.133,-49.585 v -0.6276 c 0,-25.7341 -17.5745,-48.9575 -45.5051,-48.9575 z m 139.6537,-60.2552 h 72.8081 v 101.3669 l 81.5959,-101.3669 h 65.2765 v 219.6802 h -72.8085 v -96.9729 l -78.1435,96.9729 h -68.7285 z m 418.962,-4.0796 c 58.9997,0 96.9732,28.2444 96.9732,74.3771 v 0.6279 c 0,44.2499 -37.6597,60.569 -93.835,70.9254 -23.2231,4.3934 -29.186,8.1595 -29.186,14.1222 v 0.6276 c 0,5.3353 5.0212,9.1014 16.0055,9.1014 20.399,0 45.1913,-6.5908 65.9041,-21.6544 l 35.7766,49.5851 c -25.4202,20.0851 -56.8034,30.1277 -99.1701,30.1277 -60.569,0 -93.2074,-32.3249 -93.2074,-74.0639 v -0.6276 c 0,-46.4471 43.3083,-60.569 92.5796,-70.6116 23.5372,-4.7075 30.4415,-8.1598 30.4415,-14.436 v -0.6279 c 0,-5.9629 -5.6492,-9.4147 -18.83,-9.4147 -25.7337,0 -53.037,7.532 -76.888,25.7341 l -39.2287,-46.7609 c 27.9309,-24.4783 68.1009,-37.0315 112.6647,-37.0315 z m 113.9202,4.0796 h 188.9251 v 60.2552 h -116.7443 v 23.851 h 107.3293 v 53.0371 h -107.3293 v 22.282 h 115.1751 v 60.2549 h -187.3559 z m 208.6965,0 h 73.436 v 62.7659 h 15.6915 l 41.4252,-62.7659 h 83.7927 l -51.154,74.6912 c 26.6754,12.867 43.308,35.1491 43.308,67.1596 v 0.6278 c 0,22.5956 -6.9041,38.9146 -20.0849,52.0954 -15.3777,15.3777 -40.17,25.1062 -79.0846,25.1062 h -107.3299 z m 73.436,115.1753 v 42.9948 h 32.0105 c 16.947,0 27.9309,-6.9046 27.9309,-21.0268 V 749.81 c 0,-13.4949 -10.6701,-21.3404 -28.2444,-21.3404 z m 217.7975,-116.7443 h 70.2978 l 89.1275,221.2492 h -80.968 l -42.6807,-123.3346 -42.6807,123.3346 h -82.2234 z m 169.1543,1.569 h 73.4361 v 219.6802 h -73.4361 z m 208.0687,-4.7075 c 54.6063,0 85.3617,26.6754 103.8776,59.3135 l -60.569,34.2077 c -9.101,-16.3193 -20.7128,-27.6171 -41.4256,-27.6171 -24.1647,0 -41.1114,20.0852 -41.1114,48.6437 v 0.6275 c 0,26.3617 16.3191,48.0158 41.1114,48.0158 20.0849,0 31.6971,-10.9839 39.8566,-26.6754 l 60.569,35.4628 c -18.5159,33.5798 -51.1543,57.1167 -99.4839,57.1167 -65.5903,0 -116.7446,-48.9571 -116.7446,-114.5474 v -0.6276 c 0,-68.101 53.0371,-113.9202 113.9199,-113.9202 z m 117.9998,4.7075 h 188.9251 v 60.2552 h -116.7443 v 23.851 h 107.3293 v 53.0371 h -107.3293 v 22.282 h 115.1754 v 60.2549 h -187.3562 z m 303.1594,-4.0796 c 58.9994,0 96.9729,28.2444 96.9729,74.3771 v 0.6279 c 0,44.2499 -37.6594,60.569 -93.835,70.9254 -23.2231,4.3934 -29.1861,8.1595 -29.1861,14.1222 v 0.6276 c 0,5.3353 5.0213,9.1014 16.0056,9.1014 20.399,0 45.1913,-6.5908 65.9041,-21.6544 l 35.7766,49.5851 c -25.4202,20.0851 -56.8032,30.1277 -99.1701,30.1277 -60.569,0 -93.2074,-32.3249 -93.2074,-74.0639 v -0.6276 c 0,-46.4471 43.3083,-60.569 92.5796,-70.6116 23.5374,-4.7075 30.4415,-8.1598 30.4415,-14.436 v -0.6279 c 0,-5.9629 -5.6489,-9.4147 -18.83,-9.4147 -25.7337,0 -53.037,7.532 -76.8878,25.7341 l -39.2289,-46.7609 c 27.9309,-24.4783 68.1009,-37.0315 112.665,-37.0315 z m -5608.4434,-334.8973 46.7606,34.2071 -26.9895,26.0482 c 10.0425,13.1808 19.4578,28.5584 29.1863,46.1327 l -44.8775,21.0265 c -6.5906,-11.6115 -12.867,-22.9096 -20.0849,-32.3243 l -19.7717,19.1438 c 24.1651,12.5529 39.5428,32.0102 39.5428,56.8029 v 0.6276 c 0,32.6381 -26.3619,57.1167 -68.7286,57.1167 -43.3085,0 -70.9256,-27.6168 -70.9256,-60.8828 v -0.6273 c 0,-13.4949 3.7658,-26.6757 13.4949,-40.7979 -32.3246,-14.1225 -46.4468,-35.7767 -46.4468,-62.1383 v -0.6276 c 0,-40.7976 35.4625,-63.3935 82.8507,-63.3935 25.1065,0 46.7609,6.5903 66.2182,19.7711 z m -67.7872,143.106 c -6.2767,8.4733 -9.7285,15.3777 -9.7285,22.9096 v 0.6276 c 0,10.0426 5.6489,16.6328 13.8081,16.6328 7.8461,0 13.1811,-5.6485 13.1811,-14.7497 v -0.6279 c 0,-9.4147 -5.0212,-18.5156 -17.2607,-24.7924 z m -7.5316,-92.8933 c -12.5533,0 -20.7131,6.904 -20.7131,17.5742 v 0.6279 c 0,6.9041 3.1386,13.4943 10.9843,19.1435 l 30.4415,-31.0694 c -6.9046,-3.7656 -14.1225,-6.2762 -20.7127,-6.2762 z m 215.6006,-45.8192 h 73.436 v 71.867 h 102.6221 v 57.1167 h -102.6221 v 27.9309 h 110.4678 v 62.7659 h -183.9038 z m 307.239,-4.3935 c 65.5903,0 109.2127,29.4999 109.2127,104.5049 v 119.5691 h -74.6913 V 376.6255 c 0,-26.6755 -14.1224,-37.3456 -33.8938,-37.3456 -19.7711,0 -33.8936,11.6115 -33.8936,38.9148 v 120.1967 h -74.6912 v -121.138 c 0,-72.8085 42.3669,-102.936 107.9572,-102.936 z m 132.4361,4.3935 h 188.9248 v 60.2552 h -116.744 v 23.851 h 107.3293 v 53.0373 h -107.3293 v 22.2818 h 115.1751 v 60.2552 h -187.3559 z m 208.6965,0 h 176.6857 v 62.7658 h -103.2497 v 156.9147 h -73.436 z m 272.4038,0 h 71.867 v 108.8988 l 50.5267,-78.1435 h 1.2552 l 50.5264,78.1435 V 278.7109 h 73.1223 v 219.6805 h -76.5743 l -47.0744,-77.2019 -47.0744,77.2019 h -76.5745 z m 256.3982,0 h 78.4573 l 11.2981,29.4998 h 76.8883 l 11.6116,-29.4998 h 79.7125 l -92.5795,221.2497 h -72.8082 z m 108.2716,81.5958 20.0848,53.3509 20.0852,-53.3509 z m 158.7974,-81.5958 h 72.8084 v 101.3669 l 81.5956,-101.3669 h 65.2765 v 219.6805 h -72.8085 v -96.973 l -78.1435,96.973 h -68.7285 z m 228.7814,0 h 78.4573 l 11.2978,29.4998 h 76.8883 l 11.6116,-29.4998 h 79.7125 l -92.5795,221.2497 h -72.8082 z m 108.2713,81.5958 20.0849,53.3509 20.0851,-53.3509 z m 262.9885,-86.3033 c 39.8565,0 73.1222,13.4949 96.9732,32.9522 v 101.6807 h -106.3879 v -47.0747 h 37.6594 v -21.9679 c -5.6492,-3.1383 -12.5533,-5.021 -25.1065,-5.021 -30.7553,0 -52.4092,21.3403 -52.4092,52.4092 v 0.6278 c 0,29.8137 20.7128,51.7819 49.271,51.7819 18.2021,0 34.2076,-6.9043 48.6436,-19.1438 l 41.1118,49.5854 c -23.8513,20.7124 -54.2929,33.2654 -91.9523,33.2654 -69.3561,0 -121.138,-48.9572 -121.138,-114.5472 v -0.6279 c 0,-68.1009 54.9201,-113.9201 123.3349,-113.9201 z m 118.3138,4.7075 h 188.9252 v 60.2552 h -116.7443 v 23.851 h 107.3293 v 53.0373 h -107.3293 v 22.2818 h 115.175 v 60.2552 h -187.3559 z m 208.6966,0 h 71.867 v 108.8988 l 50.5265,-78.1435 h 1.2551 l 50.5265,78.1435 V 278.7109 h 73.1222 v 219.6805 h -76.574 l -47.0747,-77.2019 -47.0741,77.2019 h -76.5745 z m 272.4038,0 h 188.9248 v 60.2552 h -116.744 v 23.851 h 107.3293 v 53.0373 h -107.3293 v 22.2818 h 115.1751 v 60.2552 h -187.3559 z m 208.6965,0 h 72.8081 v 101.3669 l 81.5959,-101.3669 h 65.2762 v 219.6805 h -72.8081 v -96.973 l -78.1436,96.973 h -68.7285 z m 300.9623,0 h 73.436 v 157.5425 h 64.6486 v 62.138 h -202.7338 v -62.138 h 64.6492 z m 328.8931,-4.0797 c 58.9998,0 96.973,28.2445 96.973,74.3775 v 0.6276 c 0,44.2502 -37.6594,60.569 -93.835,70.9253 -23.2229,4.3937 -29.1858,8.1598 -29.1858,14.1222 v 0.6279 c 0,5.3351 5.0213,9.1012 16.0052,9.1012 20.399,0 45.1914,-6.5905 65.9044,-21.6544 l 35.7764,49.5853 c -25.42,20.0849 -56.8032,30.1275 -99.1701,30.1275 -60.569,0 -93.2071,-32.3246 -93.2071,-74.0639 v -0.6276 c 0,-46.4468 43.308,-60.569 92.5795,-70.6116 23.5372,-4.7075 30.4413,-8.1595 30.4413,-14.436 v -0.6279 c 0,-5.9627 -5.6489,-9.4147 -18.8297,-9.4147 -25.7338,0 -53.0371,7.5319 -76.8881,25.7341 l -39.2287,-46.7606 c 27.9306,-24.4786 68.1007,-37.0319 112.6647,-37.0319 z m 228.4679,-0.6278 c 67.7869,0 120.1964,50.8405 120.1964,114.548 v 0.6273 c 0,63.7073 -51.7816,113.9199 -119.5688,113.9199 -67.7874,0 -120.1966,-50.8402 -120.1966,-114.5472 v -0.6279 c 0,-63.7075 51.7819,-113.9201 119.569,-113.9201 z m 0.6276,64.9627 c -28.2447,0 -46.133,23.5372 -46.133,49.5853 v 0.6273 c 0,25.7341 17.5745,48.9575 45.5054,48.9575 28.2447,0 46.133,-23.5372 46.133,-49.5848 v -0.6279 c 0,-25.734 -17.5745,-48.9574 -45.5054,-48.9574 z m 139.6537,-60.2552 h 176.686 v 62.7658 h -103.2497 v 156.9147 h -73.4363 z m 292.4889,-4.3935 c 65.59,0 109.2124,29.4999 109.2124,104.5049 v 119.5691 h -74.6912 V 376.6255 c 0,-26.6755 -14.1225,-37.3456 -33.8936,-37.3456 -19.7711,0 -33.8936,11.6115 -33.8936,38.9148 v 120.1967 h -74.6912 v -121.138 c 0,-72.8085 42.3669,-102.936 107.9572,-102.936 z m 188.6114,4.3935 h 73.436 v 157.5425 h 64.6486 v 62.138 h -202.7335 v -62.138 h 64.6489 z m 155.3456,0 h 73.4361 v 219.6805 h -73.4361 z m 213.7179,-4.7075 c 67.7871,0 120.1963,50.8405 120.1963,114.548 v 0.6273 c 0,63.7073 -51.7816,113.9199 -119.5687,113.9199 -67.7872,0 -120.1967,-50.8402 -120.1967,-114.5472 v -0.6279 c 0,-63.7075 51.7819,-113.9201 119.5691,-113.9201 z m 0.6276,64.9627 c -28.2445,0 -46.1328,23.5372 -46.1328,49.5853 v 0.6273 c 0,25.7341 17.5743,48.9575 45.5052,48.9575 28.2447,0 46.133,-23.5372 46.133,-49.5848 v -0.6279 c 0,-25.734 -17.5745,-48.9574 -45.5054,-48.9574 z m 139.6539,-60.2552 h 72.8081 v 101.3669 l 81.5959,-101.3669 h 65.2762 v 219.6805 h -72.8082 v -96.973 l -78.1435,96.973 h -68.7285 z m 339.2492,-4.0797 c 58.9998,0 96.973,28.2445 96.973,74.3775 v 0.6276 c 0,44.2502 -37.6594,60.569 -93.8347,70.9253 -23.2231,4.3937 -29.1861,8.1598 -29.1861,14.1222 v 0.6279 c 0,5.3351 5.0213,9.1012 16.0053,9.1012 20.3989,0 45.1916,-6.5905 65.9043,-21.6544 l 35.7767,49.5853 c -25.4203,20.0849 -56.8035,30.1275 -99.1704,30.1275 -60.569,0 -93.2071,-32.3246 -93.2071,-74.0639 v -0.6276 c 0,-46.4468 43.3083,-60.569 92.5795,-70.6116 23.5372,-4.7075 30.4416,-8.1595 30.4416,-14.436 v -0.6279 c 0,-5.9627 -5.6492,-9.4147 -18.83,-9.4147 -25.7338,0 -53.0371,7.5319 -76.8881,25.7341 l -39.2287,-46.7606 c 27.9307,-24.4786 68.101,-37.0319 112.6647,-37.0319" /><path
       id="path14"
       style="fill:#373535;fill-opacity:1;fill-rule:nonzero;stroke:none"
       d="m 2193.4786,1812.9574 144.0737,0.6764 v -9.4819 c 0,-18.248 4.5978,-31.1264 13.157,-37.188 8.5354,-6.7932 27.6106,-10.1579 55.2526,-10.1579 h 183.5606 c 17.7628,0 30.896,3.3647 38.8026,9.4898 7.2151,6.0613 11.1683,16.8877 11.1683,31.0867 0,14.9068 -4.5976,25.7091 -13.133,31.7945 -9.2273,6.0931 -28.2866,10.834 -57.2414,12.8863 l -229.6017,5.3856 c -57.2256,2.044 -96.0361,12.8545 -116.4317,33.8147 -20.4035,20.3162 -30.2513,58.1961 -30.2513,112.9794 0,28.4218 2.609,51.4108 7.8828,69.6744 5.2501,18.2719 13.8093,33.139 25.6539,45.3254 13.801,14.1991 32.2398,23.6809 54.6083,29.098 22.3602,6.0854 59.2061,8.782 109.8609,8.782 h 223.0075 c 55.2847,0 95.4156,-10.1342 119.7409,-31.1185 24.3331,-20.2924 36.1695,-54.1071 36.1695,-100.777 v -10.158 c 0,-3.3888 -0.6443,-8.8058 -1.3125,-16.9194 H 2627.657 v 2.0523 c 0,16.2192 -3.9297,28.398 -11.8443,36.5037 -7.8831,8.1374 -20.3717,12.1785 -36.1698,12.1785 H 2411.244 c -28.2866,0 -46.7254,-2.6887 -55.2847,-8.782 -9.2035,-5.417 -13.8092,-15.575 -13.8092,-29.774 0,-14.199 3.9614,-24.3253 12.4889,-30.4424 7.9149,-6.0613 23.0366,-10.1342 44.7604,-12.1547 l 240.094,-4.0646 c 54.6165,-1.3524 93.4509,-14.207 115.7873,-37.8879 22.3685,-23.6809 33.5605,-64.2654 33.5605,-121.7613 0,-34.5149 -3.9535,-60.8925 -12.4886,-79.1323 -7.907,-18.9479 -21.7162,-35.1912 -41.4437,-48.0458 -12.5124,-8.8138 -30.283,-14.199 -51.9752,-18.2639 -22.3923,-3.3965 -53.9563,-5.417 -96.0519,-5.417 h -194.7209 c -79.6178,0 -132.9058,9.4819 -159.8718,27.7534 -26.9662,18.2401 -40.7755,52.7551 -40.7755,102.8135 0,3.3726 0,8.1136 0.6446,14.8751 0,6.7615 0.6761,14.8751 1.3204,24.3569 z m 992.7272,-163.7138 h -146.0625 v 371.3769 h -200.0027 v 120.4089 h 546.0599 v -120.4089 h -199.9947 z m 478.2631,200.2493 h 183.5524 l -92.7746,173.8483 z m -101.9783,-200.2493 h -159.1955 l 261.1738,491.7858 h 186.1855 l 256.5442,-491.7858 h -160.5163 l -46.0491,81.8609 h -291.4251 z m 1240.7601,0 h -213.8278 l -286.8273,357.8463 v -357.8463 h -146.0308 v 491.7858 h 216.413 l 284.8547,-360.5346 v 360.5346 h 145.4182 z m 88.7893,163.7138 144.074,0.6764 v -9.4819 c 0,-18.248 4.5978,-31.1264 13.1567,-37.188 8.5592,-6.7932 27.6423,-10.1579 55.2609,-10.1579 h 183.5526 c 17.7625,0 30.9195,3.3647 38.8106,9.4898 7.2385,6.0613 11.192,16.8877 11.192,31.0867 0,14.9068 -4.6295,25.7091 -13.157,31.7945 -9.2353,6.0931 -28.2867,10.834 -57.2494,12.8863 l -229.5779,5.3856 c -57.2414,2.044 -96.052,12.8545 -116.4555,33.8147 -20.4035,20.3162 -30.2513,58.1961 -30.2513,112.9794 0,28.4218 2.609,51.4108 7.8831,69.6744 5.2501,18.2719 13.809,33.139 25.6536,45.3254 13.8013,14.1991 32.2398,23.6809 54.6083,29.098 22.3605,6.0854 59.2061,8.782 109.8612,8.782 h 223.0073 c 55.2846,0 95.4156,-10.1342 119.7408,-31.1185 24.3331,-20.2924 36.1777,-54.1071 36.1777,-100.777 v -10.158 c 0,-3.3888 -0.6443,-8.8058 -1.2968,-16.9194 h -140.8125 v 2.0523 c 0,16.2192 -3.9294,28.398 -11.8443,36.5037 -7.8831,8.1374 -20.3717,12.1785 -36.1698,12.1785 h -168.3989 c -28.2866,0 -46.7254,-2.6887 -55.2846,-8.782 -9.1795,-5.417 -13.809,-15.575 -13.809,-29.774 0,-14.199 3.9614,-24.3253 12.5203,-30.4424 7.8832,-6.0613 23.0128,-10.1342 44.7288,-12.1547 l 240.1259,-4.0646 c 54.5845,-1.3524 93.4189,-14.207 115.7873,-37.8879 22.3603,-23.6809 33.5367,-64.2654 33.5367,-121.7613 0,-34.5149 -3.9296,-60.8925 -12.4888,-79.1323 -7.8911,-18.9479 -21.7242,-35.1912 -41.4516,-48.0458 -12.5124,-8.8138 -30.2514,-14.199 -51.9673,-18.2639 -22.3685,-3.3965 -53.964,-5.417 -96.0599,-5.417 h -194.7209 c -79.6096,0 -132.9055,9.4819 -159.8717,27.7534 -26.966,18.2401 -40.7753,52.7551 -40.7753,102.8135 0,3.3726 0,8.1136 0.6443,14.8751 0,6.7615 0.6761,14.8751 1.3204,24.3569 z m 1201.2812,208.3315 h -376.3086 v -74.3916 h 354.5926 v -103.4895 h -354.5926 v -75.0915 h 382.2029 v -119.0727 h -528.2416 v 491.7858 h 522.3473 z m 471.6686,-2.6887 H 6332.779 v -120.4169 h 232.2108 c 19.7591,0 32.8923,4.741 40.8072,14.1988 7.8829,9.4898 11.8126,26.3775 11.8126,50.7345 0,19.6163 -3.9297,33.1469 -12.4886,42.6288 -8.5592,8.782 -21.6924,12.8548 -40.1312,12.8548 z m 5.2738,122.4292 c 76.3007,0 127.6319,-11.5024 155.2422,-34.4832 26.9663,-23.0128 40.7994,-65.6413 40.7994,-126.502 0,-42.6288 -5.9182,-74.4233 -18.4309,-94.7157 -11.8446,-20.9602 -32.2163,-34.4832 -61.179,-41.9207 25.0013,-6.0934 44.0844,-16.9195 56.5733,-32.4709 13.1649,-15.5749 19.0831,-35.8591 19.0831,-60.8924 v -100.8009 h -146.0308 v 75.0997 c 0,19.6081 -4.6057,32.4627 -13.1649,39.9002 -9.2035,7.4375 -26.3217,10.8343 -52.6436,10.8343 H 6332.779 v -125.8342 h -146.7071 v 491.7858 z m 585.4913,-353.105 190.7912,353.105 H 7501.82 L 7246.5327,1649.2436 H 7069.5746 L 6816.96,2141.0294 h 159.1957 z" /><path
       id="path16"
       style="fill:#373535;fill-opacity:1;fill-rule:nonzero;stroke:none"
       d="m 2193.4474,1820.9268 152.1051,0.7132 v -17.4884 c 0,-8.2205 0.9859,-15.0976 2.8891,-20.4772 1.6693,-4.718 3.9761,-8.1672 6.8615,-10.2104 l 0.375,-0.25 c 3.2021,-2.5486 8.8538,-4.5482 16.7381,-5.9975 8.7545,-1.6095 20.0188,-2.4106 33.546,-2.4106 h 183.5603 c 8.2281,0 15.2629,0.7407 21.0473,2.1552 5.3118,1.2988 9.5405,3.1374 12.6317,5.4578 2.5319,2.1302 4.5312,5.2084 5.9312,9.106 1.55,4.3146 2.3607,9.6472 2.3607,15.8579 0,6.3944 -0.9235,11.7748 -2.7037,16.0849 -1.5945,3.8602 -3.9013,6.9018 -6.8629,9.0709 -3.9541,2.6024 -10.3765,4.9807 -19.3025,6.9899 -8.9802,2.0214 -20.3273,3.5926 -34.068,4.5663 l 6e-4,0.01 -229.3208,5.3768 c -29.3137,1.0468 -53.9572,4.3526 -73.9335,10.0947 -20.7539,5.9661 -36.7308,14.6109 -47.9353,26.1264 -11.1838,11.1776 -19.4108,26.9042 -24.7774,47.0956 -5.201,19.5665 -7.7553,43.4089 -7.7553,71.4459 0,14.4269 0.6732,27.5714 2.0259,39.5217 1.3553,11.973 3.4164,22.7214 6.1898,32.3345 l -0.021,0.01 c 2.793,9.72 6.4958,18.5871 11.1041,26.6944 4.6182,8.1253 10.126,15.4281 16.5189,22.0057 7.4982,7.7153 16.2272,14.1329 26.091,19.3422 9.6412,5.0921 20.3881,9.0277 32.1474,11.8913 l -0.01,0.021 c 11.643,3.1686 26.9439,5.4462 45.8201,6.9231 18.6094,1.4558 40.6791,2.1401 66.1345,2.1401 h 223.0078 c 28.2249,0 52.7344,-2.6263 73.4488,-7.9713 21.2089,-5.4726 38.4072,-13.8124 51.5106,-25.1161 l -0.01,-0.01 c 13.2608,-11.0965 23.0734,-25.7372 29.5282,-43.8335 6.3145,-17.7041 9.4286,-38.7216 9.4286,-62.9674 v -10.1586 c 0,-2.3187 -0.3192,-5.8133 -0.75,-10.5341 -0.066,-0.7256 -0.1403,-1.5363 -0.5936,-7.0412 l -0.6046,-7.3437 h -156.1527 v 10.0519 c 0,7.3213 -0.8476,13.6086 -2.5481,18.8572 -1.5826,4.8844 -3.9195,8.9141 -7.0149,12.0844 -3.0166,3.1138 -6.9905,5.4779 -11.7913,7.0942 -5.2458,1.766 -11.516,2.6465 -18.6596,2.6465 H 2411.235 c -13.8705,0 -25.1535,-0.6325 -33.8216,-1.9809 -7.9645,-1.239 -13.5847,-2.9843 -16.838,-5.3005 l -0.5939,-0.375 c -3.1275,-1.8408 -5.4984,-4.5298 -7.1093,-8.0036 -1.8201,-3.9246 -2.7309,-8.915 -2.7309,-14.8958 0,-6.084 0.7974,-11.1697 2.4528,-15.2518 1.4763,-3.6414 3.6899,-6.537 6.6923,-8.6911 l 0.1877,-0.1561 c 3.0991,-2.3735 7.9234,-4.4448 14.4031,-6.2042 7.0906,-1.9253 15.7669,-3.3713 25.958,-4.3302 l 239.8368,-4.0595 c 28.0676,-0.6951 52.1493,-4.3589 72.1503,-10.9035 20.6796,-6.7666 37.1333,-16.626 49.2621,-29.4846 12.0827,-12.791 21.0989,-29.9746 27.0454,-51.5491 5.8011,-21.0476 8.7029,-46.2748 8.7029,-75.6814 0,-17.532 -1.0292,-33.1574 -3.1688,-46.8873 -2.1487,-13.788 -5.44,-25.5546 -9.9547,-35.3032 h 0.01 c -4.297,-10.2974 -10.2149,-19.8649 -17.7551,-28.6061 -7.3057,-8.4699 -16.1305,-16.1343 -26.473,-22.9034 v -0.01 c -6.912,-4.8685 -15.1577,-8.75 -24.5767,-11.9438 -9.0796,-3.0787 -19.3079,-5.5306 -30.524,-7.6325 l -0.2812,-0.062 c -11.632,-1.764 -25.7885,-3.1663 -42.6665,-4.1179 -16.0132,-0.9031 -34.164,-1.3926 -54.5726,-1.3926 h -194.7212 c -40.0581,0 -73.6214,2.3927 -100.6858,7.0911 -27.9122,4.8453 -49.1275,12.2304 -63.6403,22.0589 l -0.014,-0.022 c -14.845,10.0412 -26.0314,24.4888 -33.4681,43.2405 -7.1966,18.1463 -10.8377,40.2458 -10.8377,66.1981 0,3.3086 3e-4,7.9197 0.6441,14.9578 0,5.6067 0.4708,12.2287 1.0023,19.7853 0.1145,1.6285 0.2327,3.3023 0.3492,5.0204 l 0.5032,7.4024 7.4344,0.035 z m 136.1052,-15.2995 -128.6215,-0.6032 c -0.4277,-6.1395 -0.773,-11.5917 -0.773,-16.4233 l -0.062,-0.7501 c -0.5817,-6.1067 -0.5817,-10.7923 -0.5817,-14.125 0,-24.0296 3.2423,-44.1652 9.65,-60.323 6.209,-15.6563 15.4318,-27.6398 27.5936,-35.8659 v -0.031 c 12.5668,-8.5147 31.7001,-15.0437 57.4044,-19.506 26.1102,-4.5326 58.7752,-6.8412 97.9985,-6.8412 h 194.7212 c 20.5662,0 38.4018,0.4677 53.6978,1.3303 16.1447,0.9105 29.8111,2.2706 41.1664,3.9926 v -0.01 c 10.3638,1.951 19.7725,4.2088 28.0537,7.0168 8.0166,2.7182 14.9136,5.9366 20.514,9.8813 l 0.25,0.1562 c 9.1613,5.9698 16.9427,12.7049 23.3445,20.1268 6.3893,7.4073 11.4117,15.5328 15.0678,24.2941 l 0.1562,0.3124 c 3.9444,8.4296 6.8505,18.8671 8.7891,31.3069 1.9709,12.6465 2.9188,27.468 2.9188,44.4501 0,28.0845 -2.6934,51.895 -8.0781,71.4317 -5.2416,19.0165 -13.0074,33.9706 -23.2951,44.8616 -10.2575,10.8749 -24.4772,19.3128 -42.5747,25.2343 -18.6032,6.0874 -41.1613,9.4989 -67.5876,10.1535 l -240.0316,4.0648 -0.5938,0.031 c -11.4608,1.0656 -21.1485,2.6666 -28.982,4.7937 -8.3299,2.262 -14.9267,5.2001 -19.7096,8.8069 l -0.01,-0.01 c -5.5245,3.9634 -9.5565,9.1904 -12.1921,15.6909 -2.4568,6.059 -3.6406,13.1371 -3.6406,21.2516 0,8.2735 1.4111,15.5027 4.231,21.5833 2.9243,6.3048 7.3046,11.281 13.1389,14.8215 5.3025,3.7071 13.1204,6.3107 23.4649,7.92 9.762,1.5188 21.8424,2.2308 36.2588,2.2308 h 168.3995 c 8.7738,0 16.7423,-1.1712 23.7223,-3.5212 7.2403,-2.4378 13.3591,-6.1327 18.1658,-11.0945 4.8184,-4.9348 8.4045,-11.0483 10.7652,-18.3342 1.73,-5.3393 2.7904,-11.2683 3.185,-17.7843 h 125.6675 c 0.3509,3.8461 0.6091,6.7059 0.6091,8.9192 v 10.1586 c 0,22.4234 -2.8043,41.6488 -8.4909,57.5923 -5.5272,15.4964 -13.7605,27.8768 -24.7722,37.0593 l -0.125,0.094 c -11.2218,9.6806 -26.2522,16.901 -45.0108,21.7411 -19.2529,4.9677 -42.4522,7.4089 -69.5115,7.4089 H 2390.835 c -25.1988,0 -46.8796,-0.6641 -64.9468,-2.0778 -17.7999,-1.3926 -32.1032,-3.5064 -42.8204,-6.423 l -0.2186,-0.031 c -10.525,-2.5489 -20.1118,-6.0465 -28.673,-10.5684 -8.3976,-4.4348 -15.7898,-9.8583 -22.0912,-16.342 -5.4513,-5.6086 -10.1464,-11.8335 -14.0811,-18.756 -3.9447,-6.9403 -7.147,-14.6432 -9.6041,-23.1942 l -0.032,-0.031 c -2.495,-8.6408 -4.3724,-18.5074 -5.6375,-29.6844 -1.2694,-11.2147 -1.9012,-23.777 -1.9012,-37.7716 0,-26.7458 2.3692,-49.2359 7.1929,-67.3833 4.6423,-17.4665 11.5112,-30.8069 20.6836,-39.9395 l 0.094,-0.094 c 9.1896,-9.4447 22.8172,-16.6858 40.873,-21.8761 18.834,-5.4136 42.2091,-8.5356 70.121,-9.5323 l 229.5076,-5.3856 h 0.375 c 14.4468,-1.0238 26.5998,-2.7257 36.4434,-4.9416 10.9017,-2.4539 19.1222,-5.6123 24.6421,-9.2574 l 0.2188,-0.1564 c 5.5287,-3.9419 9.7498,-9.3578 12.5541,-16.147 2.6034,-6.3032 3.9538,-13.718 3.9538,-22.1471 0,-7.9436 -1.154,-15.0905 -3.3608,-21.2329 -2.3802,-6.6263 -5.9788,-12.0272 -10.6823,-15.9789 l -0.25,-0.1877 c -4.8654,-3.7687 -11.1912,-6.6419 -18.8802,-8.5221 -7.1263,-1.7427 -15.4222,-2.6552 -24.7975,-2.6552 h -183.5603 c -14.3053,0 -26.532,0.9051 -36.4209,2.723 -10.5041,1.9309 -18.527,4.9878 -23.8009,9.1854 l 0.01,0.013 c -5.5057,4.0255 -9.6613,9.9751 -12.3712,17.6343 -2.5208,7.1258 -3.8268,15.7921 -3.8268,25.7899 v 1.4757 z m 856.6532,-164.3839 h -154.063 v 371.3774 h -200.0021 l 3e-4,136.4083 h 562.0598 v -136.4083 h -199.9951 v -371.3774 z m -138.0631,15.9999 h 130.0632 l 2e-4,371.3774 h 199.9948 v 104.4085 h -530.0603 v -104.4085 h 200.0021 z m 629.4917,200.2496 H 3834.72 l -79.397,148.7803 z m 170.3869,-15.9999 h -196.7176 l 103.8676,198.9153 106.1516,-198.9153 z m -285.5307,-200.2496 -172.4979,-3e-4 c 89.8872,169.2638 179.775,338.527 269.6709,507.786 h 195.8037 c 88.2882,-169.2664 176.5948,-338.5231 264.89,-507.7857 h -178.3409 l -46.0491,81.8612 h -282.1402 l -46.7172,-81.8612 z m -145.893,15.9999 h 141.2739 l 46.7175,81.8611 h 300.71 l 46.0491,-81.8611 h 142.6907 l -248.1976,475.7859 h -176.5667 z m 1386.6531,-15.9999 h -217.6421 l -275.0131,343.1072 v -343.1072 h -162.0306 v 507.7857 h 228.2428 l 273.0246,-345.5615 v 345.5615 h 161.4183 v -507.7857 z m -210.0138,15.9999 h 202.0138 v 475.7859 h -129.4185 v -375.5078 l -296.6845,375.5078 h -204.5829 v -475.7859 h 130.0308 v 372.5855 z m 298.7719,163.6835 152.1051,0.7132 v -17.4884 c 0,-8.2202 0.9859,-15.0973 2.8894,-20.4772 1.669,-4.7182 3.9761,-8.1672 6.8615,-10.2104 l 0.375,-0.25 c 3.2097,-2.5475 8.8691,-4.547 16.7585,-5.9972 8.7565,-1.6098 20.0171,-2.4109 33.533,-2.4109 h 183.5526 c 8.231,0 15.2734,0.741 21.0629,2.1566 5.311,1.2985 9.5397,3.1362 12.6246,5.4561 2.545,2.1345 4.5494,5.2104 5.9494,9.0995 1.5542,4.3175 2.3658,9.6525 2.3658,15.8647 0,6.3842 -0.9286,11.7592 -2.7119,16.0693 -1.6345,3.9501 -4.0136,7.0444 -7.0696,9.2251 v 0 c -3.9648,2.5404 -10.3255,4.8685 -19.1222,6.8485 -8.9793,2.0209 -20.3253,3.5915 -34.0677,4.5652 l 6e-4,0.01 -229.297,5.3768 c -29.3213,1.0468 -53.9691,4.3526 -73.9486,10.0947 -20.7564,5.9658 -36.7353,14.6109 -47.9449,26.1264 -11.1829,11.1776 -19.4099,26.9042 -24.7768,47.0956 -5.2007,19.5665 -7.7556,43.4089 -7.7556,71.4459 0,14.4269 0.6733,27.5711 2.0263,39.5217 1.3552,11.973 3.4168,22.7214 6.1897,32.3345 l -0.021,0.01 c 2.793,9.7203 6.4956,18.5871 11.1039,26.6944 4.6182,8.1253 10.1259,15.4281 16.5189,22.0057 7.4993,7.715 16.2277,14.1329 26.0915,19.3422 9.6417,5.0924 20.3881,9.0277 32.1477,11.8913 l -0.01,0.021 c 11.643,3.1686 26.9436,5.4462 45.8198,6.9231 18.6089,1.4558 40.6791,2.1401 66.1345,2.1401 h 223.0073 c 28.2254,0 52.7346,-2.6263 73.4493,-7.9713 21.2091,-5.4726 38.4075,-13.8124 51.5107,-25.1161 l -0.01,-0.01 c 13.2602,-11.0962 23.0751,-25.7369 29.5319,-43.8335 6.3164,-17.7035 9.4326,-38.7213 9.4326,-62.9674 v -10.1586 c 0,-2.2424 -0.3099,-5.6772 -0.7265,-10.2991 -0.079,-0.8804 -0.1698,-1.8808 -0.6013,-7.245 l -0.5936,-7.3749 h -156.1872 v 10.0519 c 0,7.3213 -0.8476,13.6086 -2.5481,18.8572 -1.5826,4.8844 -3.9195,8.9141 -7.0155,12.0844 -3.0163,3.1135 -6.9899,5.4779 -11.7909,7.0942 -5.2458,1.766 -11.5161,2.6465 -18.66,2.6465 H 5109.794 c -13.8702,0 -25.1532,-0.6325 -33.8213,-1.9809 -7.9645,-1.239 -13.5847,-2.9843 -16.8383,-5.3005 l -0.5627,-0.375 c -3.1485,-1.8578 -5.5307,-4.5513 -7.1379,-8.017 -1.8199,-3.9237 -2.7338,-8.909 -2.7338,-14.8824 0,-6.0826 0.7977,-11.1682 2.4568,-15.2518 1.4854,-3.6567 3.6972,-6.5526 6.6892,-8.6911 l 0.25,-0.1873 c 3.0569,-2.3505 7.8619,-4.411 14.3394,-6.1711 7.0894,-1.9261 15.7685,-3.3732 25.9585,-4.3321 l 239.8686,-4.0595 c 28.0519,-0.6951 52.126,-4.3589 72.127,-10.9035 20.6776,-6.766 37.1395,-16.6252 49.286,-29.4846 12.0699,-12.7825 21.0792,-29.9746 27.0283,-51.5752 5.7971,-21.0492 8.6956,-46.2677 8.6956,-75.6553 0,-17.5309 -1.0231,-33.156 -3.1598,-46.8873 -2.1458,-13.79 -5.4366,-25.5563 -9.9632,-35.3035 h 0.01 c -4.286,-10.2915 -10.2019,-19.8536 -17.7407,-28.5914 -7.3125,-8.4761 -16.147,-16.1453 -26.4954,-22.9181 v -0.01 c -6.9112,-4.8679 -15.1487,-8.7494 -24.5636,-11.9438 -9.0749,-3.0787 -19.3006,-5.5306 -30.5289,-7.6325 l -0.2812,-0.062 c -11.6178,-1.7637 -25.7737,-3.1657 -42.6532,-4.1173 -16.0206,-0.9034 -34.1819,-1.3932 -54.5944,-1.3932 h -194.7212 c -40.0549,0 -73.6189,2.393 -100.6849,7.0914 -27.9122,4.8452 -49.1289,12.2303 -63.6412,22.0586 l -0.015,-0.022 c -14.845,10.0409 -26.0314,24.4885 -33.4683,43.2408 -7.1966,18.146 -10.838,40.2455 -10.838,66.1978 0,3.3086 3e-4,7.9197 0.644,14.9578 0,5.6072 0.4709,12.2287 1.0029,19.7859 0.1143,1.6282 0.2327,3.3017 0.3492,5.0198 l 0.5029,7.4024 7.4347,0.035 z m 136.1052,-15.2995 -128.6217,-0.6032 c -0.428,-6.1398 -0.7733,-11.5917 -0.7733,-16.4233 l -0.062,-0.7501 c -0.5816,-6.1067 -0.5816,-10.7923 -0.5816,-14.125 0,-24.0293 3.2425,-44.1655 9.6502,-60.3227 6.2093,-15.6566 15.4321,-27.6401 27.5939,-35.8662 v -0.031 c 12.5665,-8.5144 31.701,-15.0435 57.4052,-19.5058 26.1117,-4.5326 58.7776,-6.8414 97.9977,-6.8414 h 194.7212 c 20.5702,0 38.4162,0.468 53.7196,1.3309 16.1459,0.9105 29.8114,2.2703 41.1531,3.992 v -0.01 c 10.3753,1.9513 19.7821,4.2094 28.0584,7.0171 8.0107,2.7179 14.8998,5.9361 20.501,9.8813 l 0.25,0.1562 c 9.1681,5.974 16.9594,12.7145 23.3669,20.1416 6.3867,7.4024 11.4066,15.5228 15.0534,24.2793 l 0.1561,0.3124 c 3.9564,8.4311 6.8627,18.8691 8.7979,31.3069 1.9676,12.6451 2.9098,27.4672 2.9098,44.4501 0,28.1084 -2.6901,51.9313 -8.0708,71.468 -5.2288,18.9858 -12.9884,33.9281 -23.2781,44.8253 -10.2711,10.874 -24.499,19.3119 -42.5985,25.2343 -18.6032,6.0874 -41.1537,9.4989 -67.5644,10.1535 l -240.0633,4.0648 -0.5938,0.031 c -11.4605,1.0658 -21.1513,2.6677 -28.9826,4.7957 -8.3318,2.2637 -14.9374,5.2171 -19.7294,8.852 -5.527,3.9719 -9.5516,9.18 -12.1739,15.6351 -2.4611,6.0579 -3.6445,13.136 -3.6445,21.2516 0,8.2684 1.4153,15.4933 4.2338,21.5699 2.9732,6.4106 7.4251,11.4401 13.3418,14.9772 5.2982,3.6311 13.0482,6.1891 23.2597,7.7777 9.762,1.5188 21.8424,2.2308 36.2585,2.2308 h 168.3989 c 8.7738,0 16.7426,-1.1712 23.7226,-3.5212 7.2408,-2.4378 13.3594,-6.1333 18.1656,-11.0945 4.8192,-4.9348 8.405,-11.0483 10.7657,-18.3342 1.73,-5.3393 2.7904,-11.2683 3.185,-17.7843 h 125.6831 c 0.3447,3.8262 0.6012,6.6691 0.6012,8.9192 v 10.1586 c 0,22.4231 -2.8063,41.6486 -8.4949,57.5923 -5.5287,15.4962 -13.7639,27.8765 -24.7759,37.0593 l -0.125,0.094 c -11.2215,9.6806 -26.2522,16.901 -45.0108,21.7411 -19.2535,4.9677 -42.4525,7.4089 -69.512,7.4089 h -223.0073 c -25.1988,0 -46.8799,-0.6641 -64.9468,-2.0778 -17.7999,-1.3926 -32.1029,-3.5064 -42.8202,-6.423 l -0.2185,-0.031 c -10.5253,-2.5489 -20.1115,-6.0465 -28.6733,-10.5684 -8.3979,-4.4351 -15.7898,-9.8583 -22.0918,-16.342 -5.4513,-5.6086 -10.1463,-11.8335 -14.0811,-18.756 -3.9447,-6.9403 -7.1467,-14.6432 -9.6038,-23.1942 l -0.032,-0.031 c -2.4947,-8.6405 -4.3724,-18.5074 -5.6375,-29.6844 -1.2699,-11.215 -1.9015,-23.7773 -1.9015,-37.7716 0,-26.7458 2.3698,-49.2356 7.1932,-67.3833 4.6426,-17.4665 11.5115,-30.8069 20.683,-39.9395 l 0.094,-0.094 c 9.1936,-9.4444 22.8231,-16.6855 40.8826,-21.8761 18.8368,-5.4136 42.2164,-8.5356 70.136,-9.5323 l 229.4838,-5.3856 h 0.375 c 14.4485,-1.0238 26.5998,-2.7252 36.4431,-4.9405 10.8709,-2.4471 19.0831,-5.6063 24.6192,-9.2585 l 0.25,-0.1564 c 5.5264,-3.9439 9.7566,-9.3654 12.5694,-16.1626 2.6056,-6.2972 3.962,-13.7067 3.962,-22.1315 0,-7.9481 -1.1546,-15.0971 -3.3659,-21.2397 -2.3862,-6.6283 -5.9893,-12.0269 -10.7008,-15.9721 l -0.25,-0.1877 c -4.8546,-3.7678 -11.181,-6.6402 -18.8728,-8.5207 -7.1314,-1.7435 -15.4355,-2.6566 -24.8131,-2.6566 h -183.5526 c -14.294,0 -26.517,0.9051 -36.4079,2.7233 -10.5013,1.9301 -18.5321,4.987 -23.8213,9.1851 l 0.01,0.013 c -5.5054,4.0255 -9.6616,9.9751 -12.3712,17.6343 -2.5211,7.1258 -3.8271,15.7918 -3.8271,25.7899 v 1.4757 z m 1065.2072,207.6614 h -368.3087 v -58.3912 h 354.5927 v -119.4897 h -354.5927 v -59.0915 h 382.203 V 1641.2434 H 5562.974 v 507.7857 c 179.4489,0 358.8982,0.01 538.3471,-3e-4 v -135.7401 z m -376.3086,15.9998 h 368.3086 v 103.7407 h -506.3473 v -475.7859 h 512.2417 v 103.0731 h -382.2029 v 91.0913 h 354.5926 v 87.4899 h -354.5926 v 90.3909 z M 6564.99,2010.6003 H 6340.7786 V 1906.183 H 6564.99 c 9.0145,0 16.3679,1.029 22.2203,3.0838 5.3212,1.8683 9.4286,4.6157 12.4616,8.2403 l 0.015,-0.013 c 3.1077,3.7488 5.5041,9.244 7.1913,16.4919 1.8215,7.8254 2.7311,17.5332 2.7311,29.1303 0,9.1139 -0.871,16.6719 -2.6906,22.8963 -1.6963,5.8022 -4.2508,10.529 -7.7355,14.3892 -3.3205,3.3296 -7.5753,5.8002 -12.8296,7.4701 -5.7951,1.8417 -12.8925,2.7281 -21.3639,2.7281 z m -232.2113,15.9999 H 6564.99 c 9.9672,0 18.656,-1.1503 26.1766,-3.5405 7.9458,-2.5251 14.4669,-6.4108 19.673,-11.7516 l 0.2188,-0.2188 c 5.0746,-5.6214 8.7647,-12.4019 11.1728,-20.6391 2.2847,-7.8151 3.3783,-16.8316 3.3783,-27.3336 0,-12.7602 -1.0553,-23.6758 -3.1688,-32.7552 -2.2454,-9.6452 -5.7507,-17.333 -10.5191,-23.0729 v -0.032 c -4.8807,-5.8328 -11.2981,-10.186 -19.4616,-13.0524 -7.632,-2.6798 -16.7252,-4.0215 -27.47,-4.0215 h -240.2112 v 136.4171 h 7.9999 z m 237.4846,122.4289 c 38.6416,0 71.1224,-2.9486 97.5986,-8.8424 27.0853,-6.0293 47.9441,-15.2028 62.7372,-27.5154 l 0.094,-0.062 c 14.6342,-12.4889 25.6465,-30.1354 32.9406,-52.7516 7.0838,-21.9646 10.6713,-48.6298 10.6713,-79.8135 0,-21.7695 -1.5307,-40.8744 -4.6791,-57.2337 -3.2222,-16.742 -8.1814,-30.659 -14.9704,-41.6688 v 0 c -6.529,-11.4551 -15.3524,-20.8749 -26.4796,-28.44 -5.034,-3.4225 -10.5324,-6.4562 -16.4956,-9.119 4.2562,-1.817 8.2825,-3.8138 12.0736,-5.9896 10.2002,-5.8544 18.7665,-13.0224 25.6107,-21.5025 7.2899,-8.6224 12.5649,-18.5247 16.0101,-29.7111 3.3795,-10.9735 4.9796,-23.0802 4.9796,-36.3367 v -108.8011 h -162.03 v 83.0999 c 0,8.9705 -1.0023,16.2439 -2.9356,21.9827 -1.7195,5.104 -4.1669,8.9762 -7.2878,11.7456 -3.6043,2.8891 -9.0409,5.057 -16.4379,6.5656 -8.0983,1.6518 -18.4342,2.4404 -31.1473,2.4404 H 6340.7816 V 1641.2417 H 6178.075 v 507.7857 h 392.1913 z m 94.1613,-24.4046 c -25.1657,5.6021 -56.5019,8.4047 -94.1613,8.4047 h -376.1915 v -475.7859 h 130.707 v 125.8341 h 225.7339 c 13.6074,0 24.9927,-0.9096 34.3346,-2.815 10.0026,-2.0401 17.7095,-5.275 23.309,-9.8003 l 0.2186,-0.1873 c 5.3608,-4.6585 9.4419,-10.8888 12.1359,-18.8861 2.5093,-7.4489 3.8104,-16.4078 3.8104,-27.0454 v -67.1 h 130.0303 v 92.8012 c 0,11.7765 -1.3592,22.329 -4.2296,31.6494 -2.8049,9.1071 -7.0713,17.1357 -12.9467,24.0865 l -0.125,0.1562 c -5.5766,6.944 -12.6816,12.8727 -21.2369,17.7831 -8.8696,5.0908 -19.2282,9.0709 -30.9934,11.9382 l -30.9538,7.5438 30.8602,7.9248 c 13.5839,3.4881 25.0866,8.3583 34.509,14.7643 9.1698,6.2342 16.4018,13.9657 21.7012,23.3441 l 0.1562,0.2812 c 5.7237,9.2824 9.9808,21.409 12.8455,36.2943 2.9384,15.2671 4.3667,33.3748 4.3667,54.2335 0,29.6113 -3.3142,54.6461 -9.8589,74.9384 -6.3637,19.7317 -15.7671,34.9529 -28.1279,45.5018 l 0.01,0.01 c -12.8143,10.6324 -31.3982,18.6771 -55.9009,24.1316 z m 491.55,-319.4995 185.8198,343.9041 h 173.1699 l -263.5926,-507.7857 h -186.6438 c -86.9361,169.266 -173.8868,338.5247 -260.8328,507.7857 h 177.16 z m 195.3229,327.9042 -195.7629,-362.3057 -184.2786,362.3057 h -141.2306 l 244.3955,-475.7859 h 167.2733 l 246.9816,475.7859 z" /><path
       id="path18"
       style="fill:#373535;fill-opacity:1;fill-rule:nonzero;stroke:none"
       d="m 2193.4786,1812.9574 144.0737,0.6764 v -9.4819 c 0,-18.248 4.5978,-31.1264 13.157,-37.188 8.5354,-6.7932 27.6106,-10.1579 55.2526,-10.1579 h 183.5606 c 17.7628,0 30.896,3.3647 38.8026,9.4898 7.2151,6.0613 11.1683,16.8877 11.1683,31.0867 0,14.9068 -4.5976,25.7091 -13.133,31.7945 -9.2273,6.0931 -28.2866,10.834 -57.2414,12.8863 l -229.6017,5.3856 c -57.2256,2.044 -96.0361,12.8545 -116.4317,33.8147 -20.4035,20.3162 -30.2513,58.1961 -30.2513,112.9794 0,28.4218 2.609,51.4108 7.8828,69.6744 5.2501,18.2719 13.8093,33.139 25.6539,45.3254 13.801,14.1991 32.2398,23.6809 54.6083,29.098 22.3602,6.0854 59.2061,8.782 109.8609,8.782 h 223.0075 c 55.2847,0 95.4156,-10.1342 119.7409,-31.1185 24.3331,-20.2924 36.1695,-54.1071 36.1695,-100.777 v -10.158 c 0,-3.3888 -0.6443,-8.8058 -1.3125,-16.9194 H 2627.657 v 2.0523 c 0,16.2192 -3.9297,28.398 -11.8443,36.5037 -7.8831,8.1374 -20.3717,12.1785 -36.1698,12.1785 H 2411.244 c -28.2866,0 -46.7254,-2.6887 -55.2847,-8.782 -9.2035,-5.417 -13.8092,-15.575 -13.8092,-29.774 0,-14.199 3.9614,-24.3253 12.4889,-30.4424 7.9149,-6.0613 23.0366,-10.1342 44.7604,-12.1547 l 240.094,-4.0646 c 54.6165,-1.3524 93.4509,-14.207 115.7873,-37.8879 22.3685,-23.6809 33.5605,-64.2654 33.5605,-121.7613 0,-34.5149 -3.9535,-60.8925 -12.4886,-79.1323 -7.907,-18.9479 -21.7162,-35.1912 -41.4437,-48.0458 -12.5124,-8.8138 -30.283,-14.199 -51.9752,-18.2639 -22.3923,-3.3965 -53.9563,-5.417 -96.0519,-5.417 h -194.7209 c -79.6178,0 -132.9058,9.4819 -159.8718,27.7534 -26.9662,18.2401 -40.7755,52.7551 -40.7755,102.8135 0,3.3726 0,8.1136 0.6446,14.8751 0,6.7615 0.6761,14.8751 1.3204,24.3569 z m 992.7272,-163.7138 h -146.0625 v 371.3769 h -200.0027 v 120.4089 h 546.0599 v -120.4089 h -199.9947 z m 478.2631,200.2493 h 183.5524 l -92.7746,173.8483 z m -101.9783,-200.2493 h -159.1955 l 261.1738,491.7858 h 186.1855 l 256.5442,-491.7858 h -160.5163 l -46.0491,81.8609 h -291.4251 z m 1240.7601,0 h -213.8278 l -286.8273,357.8463 v -357.8463 h -146.0308 v 491.7858 h 216.413 l 284.8547,-360.5346 v 360.5346 h 145.4182 z m 88.7893,163.7138 144.074,0.6764 v -9.4819 c 0,-18.248 4.5978,-31.1264 13.1567,-37.188 8.5592,-6.7932 27.6423,-10.1579 55.2609,-10.1579 h 183.5526 c 17.7625,0 30.9195,3.3647 38.8106,9.4898 7.2385,6.0613 11.192,16.8877 11.192,31.0867 0,14.9068 -4.6295,25.7091 -13.157,31.7945 -9.2353,6.0931 -28.2867,10.834 -57.2494,12.8863 l -229.5779,5.3856 c -57.2414,2.044 -96.052,12.8545 -116.4555,33.8147 -20.4035,20.3162 -30.2513,58.1961 -30.2513,112.9794 0,28.4218 2.609,51.4108 7.8831,69.6744 5.2501,18.2719 13.809,33.139 25.6536,45.3254 13.8013,14.1991 32.2398,23.6809 54.6083,29.098 22.3605,6.0854 59.2061,8.782 109.8612,8.782 h 223.0073 c 55.2846,0 95.4156,-10.1342 119.7408,-31.1185 24.3331,-20.2924 36.1777,-54.1071 36.1777,-100.777 v -10.158 c 0,-3.3888 -0.6443,-8.8058 -1.2968,-16.9194 h -140.8125 v 2.0523 c 0,16.2192 -3.9294,28.398 -11.8443,36.5037 -7.8831,8.1374 -20.3717,12.1785 -36.1698,12.1785 h -168.3989 c -28.2866,0 -46.7254,-2.6887 -55.2846,-8.782 -9.1795,-5.417 -13.809,-15.575 -13.809,-29.774 0,-14.199 3.9614,-24.3253 12.5203,-30.4424 7.8832,-6.0613 23.0128,-10.1342 44.7288,-12.1547 l 240.1259,-4.0646 c 54.5845,-1.3524 93.4189,-14.207 115.7873,-37.8879 22.3603,-23.6809 33.5367,-64.2654 33.5367,-121.7613 0,-34.5149 -3.9296,-60.8925 -12.4888,-79.1323 -7.8911,-18.9479 -21.7242,-35.1912 -41.4516,-48.0458 -12.5124,-8.8138 -30.2514,-14.199 -51.9673,-18.2639 -22.3685,-3.3965 -53.964,-5.417 -96.0599,-5.417 h -194.7209 c -79.6096,0 -132.9055,9.4819 -159.8717,27.7534 -26.966,18.2401 -40.7753,52.7551 -40.7753,102.8135 0,3.3726 0,8.1136 0.6443,14.8751 0,6.7615 0.6761,14.8751 1.3204,24.3569 z m 1201.2812,208.3315 h -376.3086 v -74.3916 h 354.5926 v -103.4895 h -354.5926 v -75.0915 h 382.2029 v -119.0727 h -528.2416 v 491.7858 h 522.3473 z m 471.6686,-2.6887 H 6332.779 v -120.4169 h 232.2108 c 19.7591,0 32.8923,4.741 40.8072,14.1988 7.8829,9.4898 11.8126,26.3775 11.8126,50.7345 0,19.6163 -3.9297,33.1469 -12.4886,42.6288 -8.5592,8.782 -21.6924,12.8548 -40.1312,12.8548 z m 5.2738,122.4292 c 76.3007,0 127.6319,-11.5024 155.2422,-34.4832 26.9663,-23.0128 40.7994,-65.6413 40.7994,-126.502 0,-42.6288 -5.9182,-74.4233 -18.4309,-94.7157 -11.8446,-20.9602 -32.2163,-34.4832 -61.179,-41.9207 25.0013,-6.0934 44.0844,-16.9195 56.5733,-32.4709 13.1649,-15.5749 19.0831,-35.8591 19.0831,-60.8924 v -100.8009 h -146.0308 v 75.0997 c 0,19.6081 -4.6057,32.4627 -13.1649,39.9002 -9.2035,7.4375 -26.3217,10.8343 -52.6436,10.8343 H 6332.779 v -125.8342 h -146.7071 v 491.7858 z m 585.4913,-353.105 190.7912,353.105 H 7501.82 L 7246.5327,1649.2436 H 7069.5746 L 6816.96,2141.0294 h 159.1957 z" /><path
       id="path20"
       style="fill:#373535;fill-opacity:1;fill-rule:nonzero;stroke:none"
       d="m 2193.4318,1824.9111 156.121,0.7322 v -21.4917 c 0,-7.776 0.9059,-14.2061 2.6546,-19.1491 1.3941,-3.9405 3.208,-6.7411 5.3926,-8.2883 l 0.5624,-0.375 c 2.6842,-2.1365 7.7431,-3.8718 14.9726,-5.2007 8.4705,-1.5571 19.4944,-2.3324 32.8272,-2.3324 h 183.5603 c 7.9416,0 14.6611,0.6976 20.1098,2.0302 4.673,1.1427 8.356,2.7068 11.0058,4.6466 1.9902,1.673 3.5896,4.1703 4.7444,7.3856 1.3858,3.8577 2.1107,8.7367 2.1107,14.5143 0,5.8855 -0.8167,10.7572 -2.3911,14.5692 -1.2872,3.1161 -3.1084,5.5587 -5.4201,7.2856 -3.5677,2.3335 -9.5289,4.5085 -17.9325,6.4001 -8.7653,1.9732 -19.9111,3.5115 -33.4746,4.4728 l 8e-4,0.013 -229.0396,5.3722 h -0.1406 c -29.664,1.0593 -54.6251,4.4113 -74.8868,10.2353 -21.4285,6.16 -37.9931,15.156 -49.701,27.1888 -11.6742,11.6867 -20.2326,28.0015 -25.7771,48.8614 -5.2955,19.9219 -7.8962,44.1028 -7.8962,72.4615 0,14.5335 0.6837,27.8231 2.0573,39.9591 1.3777,12.1691 3.4838,23.135 6.3253,32.9882 l -0.031,0.01 c 2.8769,10.012 6.7051,19.1698 11.4792,27.5692 4.7897,8.4265 10.5004,15.9993 17.128,22.8183 7.7973,8.0229 16.8608,14.6891 27.0913,20.0923 9.8966,5.2271 20.916,9.2681 32.9627,12.2091 l -0.01,0.031 c 11.8743,3.2315 27.4246,5.5502 46.5701,7.048 18.7472,1.4667 40.9144,2.1561 66.4313,2.1561 h 223.0078 c 28.5157,0 53.3529,-2.6728 74.4333,-8.1122 21.8214,-5.6305 39.5617,-14.2504 53.1357,-25.96 l -0.01,-0.01 c 13.807,-11.5711 24.0049,-26.7687 30.687,-45.5026 6.4715,-18.1443 9.6631,-39.6097 9.6631,-64.311 v -10.1586 c 0,-2.3332 -0.3325,-5.9745 -0.7815,-10.8932 l -1.4848,-18.0261 H 2615.654 v 14.0522 c 0,6.9273 -0.7801,12.8089 -2.3448,17.6386 -1.3878,4.2834 -3.4126,7.7924 -6.0775,10.5216 -2.5693,2.6521 -6.0069,4.6837 -10.1973,6.0945 -4.8116,1.62 -10.6572,2.4273 -17.394,2.4273 h -168.3995 c -13.7344,0 -24.8182,-0.6123 -33.2121,-1.9182 -7.3389,-1.1418 -12.3945,-2.662 -15.135,-4.6131 l -0.8907,-0.5624 c -2.3998,-1.4125 -4.2341,-3.5087 -5.4998,-6.2379 -1.5701,-3.3857 -2.3558,-7.8163 -2.3558,-13.2239 0,-5.5763 0.701,-10.1636 2.156,-13.7517 1.1866,-2.9265 2.9458,-5.2399 5.3169,-6.941 l 0.2815,-0.2344 c 2.6748,-2.0483 7.0396,-3.8905 13.0281,-5.5168 6.8884,-1.8703 15.2892,-3.2757 25.1333,-4.208 l 239.7085,-4.0567 c 28.4782,-0.7052 52.9406,-4.4319 73.2908,-11.0908 21.3257,-6.9778 38.3375,-17.1924 50.9341,-30.547 12.5314,-13.2661 21.8599,-31.0068 27.9828,-53.221 5.9054,-21.426 8.8594,-47.0075 8.8594,-76.7441 0,-17.6689 -1.0497,-33.4956 -3.2315,-47.4967 -2.1957,-14.0894 -5.5712,-26.1621 -10.2096,-36.2231 l 0.014,-0.01 c -4.4575,-10.6818 -10.5993,-20.6096 -18.4272,-29.6844 -7.5169,-8.7145 -16.5818,-16.5977 -27.1933,-23.5567 l 0.01,-0.01 c -7.2397,-5.0992 -15.8227,-9.1468 -25.5923,-12.4594 -9.2622,-3.1405 -19.6713,-5.637 -31.0709,-7.7735 l -0.4218,-0.094 c -11.7,-1.7745 -25.9792,-3.187 -43.0415,-4.1491 -16.1958,-0.9133 -34.4256,-1.4085 -54.7914,-1.4085 h -194.7212 c -40.2664,0 -74.0543,2.414 -101.3579,7.1538 -28.4618,4.9411 -50.1961,12.539 -65.1951,22.6947 l -0.022,-0.032 c -15.5166,10.4953 -27.1939,25.5589 -34.9373,45.0845 -7.3936,18.6432 -11.1345,41.2333 -11.1345,67.6667 0,3.2785 0,7.8295 0.644,14.9882 0.01,5.6409 0.4794,12.3576 1.0182,20.0205 0.1145,1.6285 0.2327,3.3024 0.3492,5.0204 l 0.7549,11.1039 11.1515,0.052 z m 132.1484,-23.2868 -120.9153,-0.5673 c -0.2953,-4.5391 -0.5065,-8.6745 -0.5065,-12.4562 l -0.094,-1.1251 c -0.55,-5.7762 -0.5502,-10.4358 -0.5502,-13.75 0,-23.5488 3.1425,-43.1938 9.3532,-58.8544 5.902,-14.8824 14.6341,-26.2499 26.1243,-34.0219 v -0.047 c 12.0804,-8.1853 30.6922,-14.4995 55.8423,-18.8654 25.8709,-4.4912 58.3115,-6.7785 97.3264,-6.7785 h 194.7212 c 20.6087,0 38.3652,0.462 53.479,1.3144 15.9604,0.9 29.5041,2.2496 40.7914,3.9614 v -0.014 c 10.1237,1.9106 19.3043,4.1162 27.3657,6.8497 7.6663,2.5993 14.226,5.652 19.4984,9.3656 l 0.375,0.2345 c 8.8393,5.7597 16.3395,12.2493 22.5009,19.3926 6.1016,7.0733 10.8998,14.8383 14.3957,23.2158 l 0.2345,0.4685 c 3.7825,8.0842 6.5806,18.1633 8.4608,30.229 1.9284,12.3749 2.8562,26.9957 2.8562,43.8406 0,27.7543 -2.6413,51.2107 -7.9217,70.369 -5.0652,18.3767 -12.5184,32.7736 -22.3577,43.1898 -9.79,10.379 -23.451,18.4614 -40.9028,24.1718 -18.2546,5.9732 -40.4314,9.3218 -66.4469,9.9661 l -240.0001,4.0649 -0.8907,0.047 c -11.749,1.0925 -21.6666,2.7301 -29.6697,4.9031 -8.7689,2.3811 -15.7923,5.5242 -20.9871,9.4212 l -0.01,-0.014 c -6.1555,4.416 -10.6418,10.2257 -13.5675,17.441 -2.6572,6.5528 -3.9373,14.1295 -3.9373,22.7517 0,8.8466 1.5361,16.6357 4.606,23.2551 3.2335,6.9718 8.0768,12.4951 14.5295,16.4549 5.8082,4.0419 14.1653,6.8527 25.0901,8.5524 10.0363,1.5613 22.316,2.2935 36.8682,2.2935 h 168.3995 c 9.1806,0 17.5734,-1.2441 24.988,-3.7403 7.8511,-2.6433 14.506,-6.6711 19.7597,-12.0943 5.2489,-5.3757 9.1471,-12.0104 11.7026,-19.897 1.495,-4.6148 2.5186,-9.6159 3.0727,-15.0026 h 118.3354 c 0.1574,1.9193 0.2563,3.5234 0.2563,4.9189 v 10.1586 c 0,21.9679 -2.7269,40.7454 -8.2565,56.2487 -5.2906,14.8323 -13.119,26.6386 -23.5536,35.3401 l -0.1874,0.1409 c -10.7515,9.2749 -25.2397,16.2153 -43.3857,20.8973 -18.8866,4.8733 -41.7585,7.268 -68.527,7.268 h -223.0078 c -25.137,0 -46.7209,-0.6591 -64.65,-2.0619 -17.5303,-1.3717 -31.5842,-3.4444 -42.0704,-6.2981 l -0.328,-0.047 c -10.1962,-2.4693 -19.4748,-5.8533 -27.7512,-10.2246 -8.0305,-4.2412 -15.0882,-9.4158 -21.0909,-15.5919 -5.2168,-5.3674 -9.7086,-11.3225 -13.4719,-17.9434 -3.7789,-6.6483 -6.8559,-14.0606 -9.229,-22.3194 l -0.047,-0.047 c -2.4245,-8.3956 -4.2548,-18.0391 -5.4969,-29.0123 -1.2484,-11.029 -1.8698,-23.4462 -1.8698,-37.3342 0,-26.4238 2.3227,-48.5757 7.0521,-66.3676 4.4575,-16.7712 10.9794,-29.507 19.6367,-38.1271 l 0.1406,-0.1406 c 8.6862,-8.9272 21.7261,-15.8173 39.1073,-20.8137 18.5485,-5.3317 41.6064,-8.4075 69.1677,-9.3917 v 0 l 229.4608,-5.3822 h 0.5627 c 14.624,-1.0363 26.9779,-2.7708 37.0366,-5.0352 11.3905,-2.5639 20.0586,-5.9161 25.9705,-9.82 l 0.3283,-0.2344 c 6.1474,-4.3833 10.8309,-10.3808 13.9291,-17.8816 2.8094,-6.8017 4.2664,-14.7251 4.2664,-23.6627 0,-8.3767 -1.2398,-15.9769 -3.6107,-22.5766 -2.6255,-7.3088 -6.624,-13.2902 -11.8701,-17.6981 l -0.375,-0.2812 c -5.3042,-4.1085 -12.1332,-7.2243 -20.3803,-9.2409 -7.4619,-1.825 -16.073,-2.7802 -25.7349,-2.7802 h -183.5603 c -14.4995,0 -26.9665,0.9309 -37.1398,2.8012 -11.1589,2.0514 -19.7745,5.3725 -25.5662,9.9822 l 0.016,0.02 c -6.1143,4.5141 -10.7016,11.0661 -13.6587,19.4241 -2.4574,6.9457 -3.8265,15.2002 -4.0334,24.5906 z m 860.6256,-164.3812 h -158.0632 v 371.3775 h -200.0022 v 144.4087 h 570.0606 v -144.4087 h -199.995 v -371.3775 z m -134.0629,24.0004 h 122.0627 v 371.3774 h 199.995 v 96.408 h -522.0598 v -96.408 h 200.0021 z m 632.0744,200.2496 h 143.8515 l -72.7081,136.2461 z m 163.804,-24.0004 h -203.3005 l 110.4126,211.4499 112.8407,-211.4499 z m -285.5307,-200.2496 h -179.1497 l 273.9198,515.7862 h 200.613 c 89.6833,-171.9309 179.3775,-343.8564 269.0634,-515.7862 h -187.2536 l -46.0491,81.8612 h -277.4979 l -46.7172,-81.8612 z m -139.2412,24.0004 h 132.3127 l 46.7175,81.8612 h 305.3523 l 46.0491,-81.8612 h 133.7777 l -244.0239,467.7854 h -171.7577 z m 1380.0013,-24.0004 h -219.549 l -269.106,335.7375 v -335.7375 h -170.0311 v 515.7862 h 234.1585 L 4645.832,1814.955 v 338.0743 l 169.4186,-3e-4 c 0,-171.9286 3e-4,-343.8572 3e-4,-515.7859 z m -208.1067,24.0004 h 196.1065 v 467.7854 h -121.4181 v -382.9952 l -302.6001,382.9952 H 4168.565 v -467.7854 h 122.0304 v 379.9556 z m 296.8492,163.6676 156.121,0.7322 v -21.4917 c 0,-7.776 0.9059,-14.2061 2.6549,-19.1491 1.3941,-3.9405 3.208,-6.7411 5.3926,-8.2883 l 0.5624,-0.375 c 2.6898,-2.1348 7.7562,-3.8704 14.993,-5.2004 8.4725,-1.5574 19.4925,-2.3327 32.8142,-2.3327 h 183.5526 c 7.9444,0 14.6716,0.6982 20.1255,2.0316 4.6712,1.1418 8.3537,2.7054 10.9987,4.6449 2.0043,1.6798 3.609,4.1751 4.7625,7.3791 1.3901,3.8614 2.1157,8.7429 2.1157,14.5211 0,5.8742 -0.8214,10.7404 -2.3992,14.5536 -1.34,3.2383 -3.2562,5.7507 -5.6945,7.4906 v 0 c -3.5878,2.2504 -9.466,4.3574 -17.6848,6.2073 -8.7642,1.9726 -19.9091,3.5104 -33.4743,4.4717 l 8e-4,0.013 -229.0158,5.3722 h -0.1406 c -29.6717,1.0593 -54.6367,4.4113 -74.9019,10.2353 -21.431,6.1597 -37.997,15.1555 -49.7106,27.1888 -11.6733,11.687 -20.232,28.0018 -25.7765,48.8614 -5.2951,19.9216 -7.8965,44.1022 -7.8965,72.4615 0,14.5335 0.6837,27.8231 2.0577,39.9591 1.3776,12.1691 3.484,23.1353 6.3252,32.9882 l -0.031,0.01 c 2.8769,10.012 6.7048,19.1698 11.4789,27.5692 4.7897,8.4265 10.5004,15.9993 17.1281,22.8183 7.7981,8.0226 16.8613,14.6891 27.0918,20.0923 9.8969,5.2271 20.9157,9.2681 32.963,12.2091 l -0.01,0.031 c 11.8743,3.2315 27.4243,5.5502 46.5698,7.048 18.7469,1.4667 40.9141,2.1561 66.4313,2.1561 h 223.0073 c 28.5162,0 53.3528,-2.6728 74.4338,-8.1122 21.8214,-5.6305 39.5623,-14.2504 53.1357,-25.96 l -0.01,-0.01 c 13.8064,-11.5708 24.0066,-26.7684 30.6907,-45.5026 6.4735,-18.1435 9.667,-39.6091 9.667,-64.311 v -10.1586 c 0,-2.2373 -0.3234,-5.8209 -0.758,-10.6429 -0.022,-0.2483 -0.048,-0.5361 -0.5856,-7.2136 l -0.8904,-11.0628 h -163.8751 v 14.0522 c 0,6.9273 -0.7801,12.8089 -2.3448,17.6386 -1.3878,4.2831 -3.4123,7.7921 -6.078,10.5216 -2.5694,2.6521 -6.0067,4.6837 -10.1971,6.0945 -4.8115,1.62 -10.6572,2.4273 -17.3943,2.4273 h -168.3989 c -13.7341,0 -24.8179,-0.6123 -33.2118,-1.9182 -7.3392,-1.1418 -12.3945,-2.662 -15.1353,-4.6131 l -0.8439,-0.5624 c -2.4347,-1.4369 -4.2851,-3.5371 -5.544,-6.2512 -1.5701,-3.3852 -2.3587,-7.8109 -2.3587,-13.2106 0,-5.5741 0.7016,-10.1617 2.16,-13.7517 1.1982,-2.9498 2.9506,-5.2628 5.2982,-6.941 l 0.375,-0.2811 c 2.6201,-2.0146 6.96,-3.841 12.9487,-5.4681 6.8876,-1.8714 15.2907,-3.2774 25.134,-4.21 l 239.7401,-4.0567 c 28.4627,-0.7052 52.9175,-4.4319 73.2677,-11.0908 21.3227,-6.9772 38.3428,-17.1916 50.9578,-30.547 12.5147,-13.2537 21.8367,-31.0085 27.9658,-53.263 5.9014,-21.4279 8.852,-46.9956 8.852,-76.7021 0,-17.6672 -1.0434,-33.493 -3.2224,-47.4967 -2.1926,-14.0919 -5.5675,-26.1644 -10.2178,-36.2234 l 0.014,-0.01 c -4.4458,-10.675 -10.5857,-20.5979 -18.4127,-29.6697 -7.5237,-8.7207 -16.5985,-16.6087 -27.2157,-23.5714 l 0.01,-0.01 c -7.2386,-5.0984 -15.8134,-9.146 -25.5793,-12.4594 -9.2571,-3.1405 -19.6634,-5.637 -31.0756,-7.7735 l -0.4218,-0.094 c -11.6859,-1.7742 -25.9645,-3.1864 -43.0283,-4.1485 -16.2028,-0.9136 -34.4435,-1.4091 -54.8132,-1.4091 h -194.7212 c -40.2633,0 -74.052,2.4143 -101.357,7.1541 -28.4618,4.941 -50.1976,12.5387 -65.196,22.6944 l -0.022,-0.032 c -15.5163,10.495 -27.1936,25.5586 -34.9376,45.0848 -7.3936,18.6429 -11.1348,41.233 -11.1348,67.6664 0,3.2785 0,7.8295 0.6443,14.9882 0.01,5.6415 0.4791,12.3579 1.0185,20.0211 0.1143,1.6282 0.2328,3.3018 0.3493,5.0198 l 0.7545,11.1039 11.1518,0.052 z m 132.1484,-23.2868 -120.9158,-0.5673 c -0.2954,-4.5391 -0.5066,-8.6745 -0.5066,-12.4562 l -0.094,-1.1251 c -0.5499,-5.7762 -0.5502,-10.4358 -0.5502,-13.75 0,-23.5483 3.1428,-43.1938 9.3535,-58.8541 5.9023,-14.8827 14.6344,-26.2502 26.1247,-34.0222 v -0.047 c 12.0798,-8.1848 30.6929,-14.4992 55.843,-18.8652 25.8724,-4.4912 58.3138,-6.7787 97.3256,-6.7787 h 194.7212 c 20.613,0 38.3799,0.4623 53.5008,1.315 15.9616,0.9 29.5044,2.2493 40.7781,3.9608 v -0.014 c 10.1352,1.9103 19.3135,4.1162 27.3705,6.8497 7.6597,2.5988 14.2114,5.6511 19.4853,9.3656 l 0.375,0.2345 c 8.8467,5.7645 16.3562,12.259 22.5233,19.4074 6.0984,7.0684 10.8944,14.8283 14.3813,23.201 l 0.2344,0.4685 c 3.7947,8.0867 6.5925,18.1661 8.4696,30.229 1.9253,12.3726 2.8471,26.994 2.8471,43.8406 0,27.7892 -2.6379,51.2632 -7.9143,70.4211 -5.0488,18.332 -12.4957,32.7113 -22.3407,43.1377 -9.8025,10.3779 -23.4717,18.4603 -40.9266,24.1718 -18.2545,5.9732 -40.4237,9.3218 -66.4237,9.9661 l -240.0318,4.0649 -0.8907,0.047 c -11.7487,1.0928 -21.6694,2.7312 -29.6702,4.9051 -8.7698,2.3831 -15.8088,5.5466 -21.0254,9.483 -6.1555,4.4294 -10.6297,10.2127 -13.5346,17.3634 -2.6615,6.5511 -3.9413,14.1276 -3.9413,22.7517 0,8.8421 1.5409,16.6272 4.6089,23.2418 3.312,7.1408 8.2754,12.7505 14.8756,16.7068 5.7923,3.9141 14.0335,6.6479 24.7416,8.3138 10.0364,1.5613 22.3161,2.2935 36.868,2.2935 h 168.3989 c 9.1809,0 17.5737,-1.2441 24.9883,-3.7403 7.8514,-2.6433 14.506,-6.6714 19.7595,-12.0943 5.2494,-5.3757 9.1476,-12.0104 11.7031,-19.897 1.4953,-4.6148 2.5186,-9.6159 3.0727,-15.0026 h 118.349 c 0.1534,1.8972 0.2503,3.4957 0.2503,4.9189 v 10.1586 c 0,21.9673 -2.7289,40.7452 -8.2604,56.2487 -5.2917,14.832 -13.1224,26.6383 -23.5573,35.3401 l -0.1874,0.1409 c -10.7512,9.2749 -25.24,16.2153 -43.3857,20.8973 -18.8869,4.8733 -41.7588,7.268 -68.5275,7.268 h -223.0073 c -25.1373,0 -46.7214,-0.6594 -64.65,-2.0619 -17.5303,-1.3717 -31.5842,-3.4444 -42.0701,-6.2981 l -0.328,-0.047 c -10.1965,-2.4693 -19.4749,-5.8533 -27.7515,-10.2246 -8.0305,-4.2412 -15.0879,-9.4158 -21.0914,-15.5919 -5.2169,-5.3674 -9.7087,-11.3225 -13.472,-17.9434 -3.7785,-6.648 -6.8555,-14.0604 -9.2287,-22.3194 l -0.047,-0.047 c -2.4242,-8.3956 -4.2548,-18.0391 -5.4969,-29.0123 -1.2487,-11.0293 -1.87,-23.4462 -1.87,-37.3342 0,-26.4235 2.3232,-48.5757 7.0523,-66.3676 4.4578,-16.7712 10.9797,-29.5072 19.6361,-38.1271 l 0.1406,-0.1406 c 8.6897,-8.9269 21.7319,-15.8171 39.117,-20.8137 18.5514,-5.3317 41.6135,-8.4075 69.1827,-9.3917 v 0 l 229.437,-5.3822 h 0.5627 c 14.6254,-1.0363 26.9782,-2.7703 37.0364,-5.034 11.3431,-2.5535 19.9978,-5.9063 25.9319,-9.8212 l 0.375,-0.2344 c 6.1441,-4.3847 10.8371,-10.3879 13.9445,-17.8971 2.8111,-6.7941 4.2746,-14.7124 4.2746,-23.6472 0,-8.3824 -1.2401,-15.9843 -3.6159,-22.5834 -2.6325,-7.3134 -6.6356,-13.2925 -11.8885,-17.6913 l -0.375,-0.2812 c -5.292,-4.1074 -12.1218,-7.2224 -20.3729,-9.2395 -7.467,-1.8258 -16.0866,-2.7816 -25.7505,-2.7816 h -183.5526 c -14.4882,0 -26.9516,0.9309 -37.1268,2.8014 -11.154,2.0503 -19.7776,5.3714 -25.5866,9.982 l 0.016,0.02 c -6.1143,4.5141 -10.7019,11.0659 -13.6587,19.4241 -2.4574,6.9457 -3.8268,15.1999 -4.0337,24.5906 z m 1069.1796,207.6641 h -364.3084 v -50.3906 h 354.5923 v -127.4902 h -354.5923 v -51.0911 h 382.2029 v -143.0734 h -552.2423 c 0,171.9287 3e-4,343.8576 3e-4,515.7862 h 546.3477 v -143.7409 z m -376.3086,24.0004 h 364.3084 v 95.7401 h -498.3469 v -467.7854 h 504.2412 v 95.0726 l -382.2029,-3e-4 v 99.0922 h 354.5926 v 79.4894 h -354.5926 v 98.3914 z M 6564.99,2006.6 h -220.2111 v -96.4168 H 6564.99 c 8.5817,0 15.4999,0.9508 20.9075,2.8494 4.6106,1.6189 8.1409,3.9648 10.7116,7.037 l 0.023,-0.019 c 2.6909,3.2525 4.8092,8.1981 6.3558,14.842 1.7487,7.5118 2.6218,16.9177 2.6218,28.224 0,8.7675 -0.8155,15.9607 -2.5186,21.7868 -1.5182,5.1939 -3.7891,9.4073 -6.876,12.8267 -2.8454,2.8001 -6.5151,4.8997 -11.0639,6.3451 -5.3632,1.7045 -12.0631,2.5248 -20.1609,2.5248 z m -232.2113,24.0004 H 6564.99 c 10.3406,0 19.427,-1.2163 27.3796,-3.7437 8.5904,-2.7301 15.6603,-6.9511 21.3296,-12.7673 l 0.3279,-0.3282 c 5.4723,-6.0622 9.4465,-13.356 12.0323,-22.2015 2.4009,-8.2131 3.5504,-17.5947 3.5504,-28.4431 0,-13.0507 -1.0917,-24.2686 -3.2783,-33.6615 -2.3842,-10.2418 -6.1656,-18.4767 -11.3471,-24.7138 v -0.047 c -5.343,-6.385 -12.3378,-11.1399 -21.2116,-14.2557 -8.0768,-2.8358 -17.6052,-4.2559 -28.7828,-4.2559 h -244.2115 v 144.4175 h 12.0002 z m 237.4846,122.4289 c 38.8874,0 71.6539,-2.9851 98.4581,-8.9518 27.7174,-6.1699 49.138,-15.62 64.4249,-28.3433 l 0.1406,-0.094 c 15.2025,-12.9738 26.6168,-31.2267 34.1436,-54.5643 7.219,-22.383 10.8746,-49.4555 10.8746,-81.0321 0,-21.9965 -1.5562,-41.3506 -4.7574,-57.9838 -3.3114,-17.206 -8.4464,-31.5708 -15.5018,-43.0126 v 0 c -6.8321,-11.9426 -16.0404,-21.7613 -27.6344,-29.6438 -3.0073,-2.0447 -6.1716,-3.9544 -9.4924,-5.7328 1.6453,-0.8402 3.2525,-1.7102 4.8203,-2.6102 10.5965,-6.082 19.5183,-13.5467 26.6732,-22.3934 7.6436,-9.0402 13.1709,-19.4111 16.776,-31.117 3.507,-11.3868 5.1673,-23.8822 5.1673,-37.5086 v -112.8014 h -170.0306 v 87.1002 c 0,8.5547 -0.9275,15.4066 -2.7164,20.717 -1.4698,4.3634 -3.5014,7.6388 -6.0537,9.9391 -3.1101,2.4682 -7.9687,4.3611 -14.688,5.7317 -7.7859,1.588 -17.8597,2.3462 -30.3502,2.3462 H 6344.7832 V 1637.2402 H 6174.076 v 515.7862 h 396.1916 z m 93.3018,-32.2957 c -24.8383,5.5293 -55.8881,8.2953 -93.3018,8.2953 h -372.1912 v -467.7854 h 122.7064 v 125.8342 h 229.7342 c 13.8302,0 25.4775,-0.94 35.1317,-2.9092 10.6441,-2.1711 18.9139,-5.6684 25.0118,-10.5968 l 0.3282,-0.2814 c 5.9015,-5.1282 10.3771,-11.937 13.3076,-20.636 2.6538,-7.8774 4.0294,-17.2576 4.0294,-28.311 v -63.0998 h 122.0298 v 88.801 c 0,11.4066 -1.2988,21.5705 -4.0419,30.4775 -2.6447,8.5876 -6.6589,16.1476 -12.181,22.6803 l -0.1877,0.2344 c -5.2546,6.543 -11.9832,12.149 -20.1115,16.8143 -8.5635,4.915 -18.5723,8.7596 -29.9466,11.5316 l -46.4313,11.3162 46.2907,11.8871 c 13.1349,3.3729 24.2223,8.058 33.2591,14.2018 8.6579,5.8862 15.4783,13.1729 20.4667,22.0006 l 0.2345,0.4218 c 5.4572,8.8503 9.5386,20.529 12.314,34.9503 2.8856,14.9939 4.2885,32.8519 4.2885,53.4835 0,29.2184 -3.246,53.8455 -9.6557,73.7198 -6.131,19.0103 -15.1324,33.6252 -26.9248,43.689 l 0.011,0.013 c -12.3202,10.2039 -30.3284,17.9609 -54.1701,23.2682 z m 492.5192,-307.0077 183.3341,339.3034 h 182.1186 c -89.248,-171.9289 -178.492,-343.8601 -267.7459,-515.7862 h -191.4863 l -264.9424,515.7862 h 186.1427 z m 197.5892,315.303 -198.2489,-366.9063 -186.6183,366.9063 h -132.2481 l 240.2861,-467.7854 h 162.4303 l 242.8285,467.7854 z" /><path
       id="path22"
       style="fill:#373535;fill-opacity:1;fill-rule:nonzero;stroke:#373535;stroke-width:0.5;stroke-linecap:butt;stroke-linejoin:miter;stroke-miterlimit:22.92558479;stroke-dasharray:none;stroke-opacity:1"
       d="m 2173.8285,1305.6905 42.7482,4.2469 c 2.749,-14.2586 7.8916,-24.872 15.4621,-31.5536 7.8917,-6.6608 18.5052,-9.9913 31.8473,-9.9913 13.9714,0 24.5576,3.0161 31.8475,9.0956 6.9687,5.7648 10.6135,12.7403 10.6135,20.9194 0,5.163 -1.518,9.4099 -4.534,13.0478 -3.043,3.6247 -8.2063,6.6609 -15.7765,9.3895 -4.8487,1.8329 -16.7001,4.8691 -34.8908,9.4099 -23.347,5.7651 -39.7049,13.0482 -49.1148,21.5144 -13.3424,12.1385 -20.0237,26.7117 -20.0237,43.9792 0,10.935 3.0365,21.5485 9.4099,30.9311 6.3669,9.6971 15.1478,16.9872 26.9921,22.1502 11.8241,5.1633 26.0824,7.5705 42.7481,7.5705 26.9989,0 47.6244,-6.0522 61.2604,-18.1907 13.65,-11.8171 20.9401,-27.8881 21.5419,-48.1987 l -43.9792,-1.5182 c -1.8122,11.1949 -5.7651,19.3944 -11.8242,24.243 -6.3666,4.8484 -15.4618,7.2831 -27.6006,7.2831 -12.7336,0 -22.7452,-2.7218 -29.7205,-7.8849 -4.5615,-3.3304 -6.9686,-7.8919 -6.9686,-13.6567 0,-5.1358 2.12,-9.3827 6.6812,-13.0278 5.4505,-4.8483 18.7926,-9.697 40.0198,-14.5729 21.2338,-5.1358 36.9831,-10.2991 47.3094,-15.7493 9.9913,-5.4572 18.1908,-12.7406 23.9559,-22.1505 5.7716,-9.0952 8.4934,-20.6251 8.4934,-34.569 0,-12.426 -3.3304,-23.9559 -10.3263,-34.884 -6.9684,-10.9075 -16.6657,-18.7923 -29.406,-24.2496 -12.4257,-5.1358 -28.2025,-7.8851 -47.3097,-7.8851 -27.286,0 -48.513,6.3669 -63.0862,19.1072 -14.8603,12.4257 -23.3334,30.9243 -26.3696,55.1945 z m 285.3754,87.0489 v -33.0784 h -28.5171 v -63.6675 c 0,-13.0482 0.3147,-20.6255 0.9165,-22.7523 0.6018,-2.12 1.8122,-3.638 3.6176,-5.163 1.8396,-1.5183 4.2743,-2.1201 6.9959,-2.1201 3.9322,0 9.3894,1.2308 16.9871,3.9595 l 3.3305,-32.1619 c -9.6971,-4.2469 -20.6252,-6.3669 -32.7637,-6.3669 -7.5773,0 -14.2314,1.2036 -20.3108,3.6383 -6.0591,2.7286 -10.3059,6.059 -13.0275,10.0116 -3.0433,3.9323 -4.8487,9.3895 -6.0797,16.3854 -0.6018,4.8487 -1.2104,14.5457 -1.2104,29.4061 v 68.8308 h -19.107 v 33.0784 h 19.107 v 31.2114 l 41.5445,24.5642 v -55.7756 z m 60.0228,-48.5405 -37.5851,6.6813 c 4.2468,15.4621 11.5092,26.6842 21.8287,34.2547 10.6206,7.2898 25.7681,10.9281 46.3933,10.9281 18.5054,0 32.4493,-2.12 41.5445,-6.6816 8.8084,-4.2465 15.469,-9.697 19.1072,-16.6725 3.6451,-6.6812 5.4573,-19.1069 5.4573,-37.2909 l -0.6086,-48.5405 c 0,-13.6363 0.6086,-23.9558 2.1268,-30.302 1.2308,-6.6813 3.638,-13.6568 7.2831,-21.2338 h -41.2506 c -0.9165,2.7286 -2.414,6.6609 -3.9322,12.111 -0.6086,2.4415 -1.2104,4.2469 -1.5251,4.8487 -6.9684,-6.9684 -14.5457,-12.1113 -22.7452,-15.7493 -8.1791,-3.3579 -16.6725,-5.1633 -25.7678,-5.1633 -16.0639,0 -28.8045,4.5547 -38.2144,13.3424 -9.4099,8.4866 -13.9439,19.7087 -13.9439,33.0508 0,9.0955 2.12,16.9804 6.3669,23.9559 4.2466,6.9684 10.3056,12.1317 17.8761,15.7765 7.6045,3.9322 18.5052,6.9687 33.0784,9.6973 19.3943,3.6448 32.7364,7.2831 40.3137,10.3263 v 4.2466 c 0,8.1791 -1.8124,13.9442 -5.7444,17.2744 -4.2468,3.3304 -11.5299,5.1633 -22.458,5.1633 -7.5773,0 -13.3424,-1.5251 -17.589,-4.5613 -3.9322,-2.7286 -7.2833,-7.8919 -10.0117,-15.4621 z m 55.8031,-33.6597 c -5.1426,-1.8329 -13.6295,-3.9322 -25.1662,-6.3669 -11.53,-2.4344 -19.107,-4.8487 -22.7452,-7.2831 -5.4573,-3.9322 -8.1791,-8.7809 -8.1791,-14.5525 0,-5.7651 2.12,-10.9281 6.654,-15.1478 4.2469,-4.2672 9.7246,-6.3941 16.3854,-6.3941 7.5773,0 14.8604,2.4347 21.5416,7.2834 5.1426,3.939 8.4935,8.4934 9.9913,13.9507 0.9164,3.6382 1.5182,10.3195 1.5182,20.3312 z m 225.0111,-75.1975 h -41.5378 v 80.3605 c 0,16.9597 -0.896,27.8878 -2.7286,32.7433 -1.8122,5.1565 -4.534,8.8013 -8.7809,11.5299 -3.9322,3.0365 -8.8081,4.2469 -14.5729,4.2469 -7.2627,0 -13.6296,-1.8329 -19.3944,-5.7651 -5.7651,-3.932 -9.6973,-9.4099 -11.8241,-15.7833 -2.1198,-6.6541 -3.3509,-18.4987 -3.3509,-36.0669 v -71.2653 h -41.5445 v 157.3977 h 38.5288 v -23.0667 c 13.9439,17.589 31.2182,26.3903 52.158,26.3903 9.0955,0 17.589,-1.5182 25.1595,-4.8487 7.8916,-3.3508 13.6564,-7.5977 17.3015,-12.7335 3.9322,-5.1633 6.6541,-10.9281 8.1791,-17.6162 1.8326,-6.3394 2.4072,-15.7495 2.4072,-27.8881 z m 27.3135,44.2732 41.8592,6.3666 c 1.8054,-7.8848 5.4502,-14.2585 10.9006,-18.1908 5.4505,-4.2672 13.055,-6.3666 22.752,-6.3666 10.6138,0 18.7926,2.0994 24.2703,6.0523 3.6178,2.7286 5.4504,6.3734 5.4504,10.9074 0,3.3511 -0.9164,5.7651 -3.0362,7.8851 -2.1268,2.1269 -6.6883,3.9595 -13.9441,5.4777 -33.3655,7.577 -54.9139,14.2379 -63.6948,20.3176 -12.4257,8.7806 -18.7926,20.5977 -18.7926,35.458 0,13.9714 5.4505,25.1867 16.0708,34.5762 10.9281,9.4099 27.5938,13.9646 50.0314,13.9646 21.5417,0 37.6124,-3.6383 48.2259,-10.6138 10.3059,-6.9684 17.589,-17.2947 21.5212,-31.2386 l -39.1102,-7.2902 c -1.5182,6.0798 -4.8484,10.9282 -9.7177,14.2586 -4.534,3.3579 -11.2221,4.8487 -20.003,4.8487 -10.9281,0 -18.813,-1.4908 -23.6684,-4.5341 -3.3234,-2.12 -4.8484,-5.163 -4.8484,-8.4934 0,-3.0365 1.525,-5.478 4.2466,-7.5705 3.645,-2.7558 16.6932,-6.6881 38.8162,-11.8514 22.4648,-4.8483 37.9063,-11.2152 46.7076,-18.4983 8.7809,-7.2626 13.0549,-17.5686 13.0549,-30.9311 0,-14.2313 -6.0794,-26.6842 -18.2179,-37.298 -11.8171,-10.2988 -29.7207,-15.4621 -53.362,-15.4621 -21.5416,0 -38.5288,4.2469 -50.9544,13.0481 -12.4257,8.4938 -20.6252,20.3177 -24.5574,35.178 z m 274.4473,5.4505 41.5448,-6.9687 c -5.1633,-15.175 -13.6567,-26.6843 -25.1662,-34.8633 -11.53,-7.8917 -26.0757,-11.8446 -43.0629,-11.8446 -27.6006,0 -47.624,9.0955 -60.9661,26.9921 -10.2991,14.2585 -15.4621,32.4493 -15.4621,54.2851 0,26.0756 6.9752,46.393 20.3173,61.2533 13.6499,14.8604 30.9518,22.1437 51.8641,22.1437 23.3541,0 41.8592,-7.5705 55.2016,-23.0599 13.6292,-15.4689 19.9959,-39.4248 19.3941,-71.2652 h -104.029 c 0.3147,-12.426 3.6723,-21.8084 10.0117,-28.8043 6.3737,-6.9755 14.5732,-10.3059 23.9627,-10.3059 6.387,0 11.8443,1.8122 16.3783,5.4505 4.5615,3.3304 7.8851,9.0952 10.0117,16.9872 z m 2.4346,42.1463 c -0.3146,12.1385 -3.3508,21.2338 -9.4098,27.6007 -5.7651,6.3666 -13.0278,9.4099 -21.5144,9.4099 -9.1228,0 -16.3854,-3.3577 -22.4649,-10.0117 -5.7376,-6.6884 -8.7809,-15.469 -8.4934,-26.9989 z m 114.9367,-91.87 h -41.5446 v 157.3977 h 38.5013 v -22.4377 c 6.6816,10.5863 12.7406,17.5618 17.9037,20.9126 5.4504,3.3305 11.2152,4.8487 18.1907,4.8487 9.4031,0 18.4984,-2.7218 27.286,-7.8851 l -12.7403,-36.0942 c -7.2626,4.5613 -13.6292,6.6813 -19.709,6.6813 -5.7444,0 -10.9074,-1.5182 -14.8603,-4.8691 -3.932,-3.0157 -7.2624,-8.7808 -9.3892,-17.2743 -2.4347,-8.4934 -3.6383,-26.0824 -3.6383,-52.7598 z m 121.6111,0 -63.3733,157.3977 h 43.6371 l 29.4335,-80.388 8.7806,-26.6843 c 2.1269,6.6813 3.6451,11.2221 4.2469,13.3422 1.2104,4.5612 2.7491,9.0952 4.5615,13.3421 l 30.0147,80.388 h 42.7685 l -62.7715,-157.3977 z m 310.8291,79.7383 v 36.6891 h 94.3319 v -86.6999 c -9.0955,-8.8081 -22.4648,-16.7 -39.7391,-23.3541 -17.5822,-6.9959 -35.1712,-10.3263 -53.0745,-10.3263 -22.7455,0 -42.461,4.8486 -59.4414,14.2585 -16.6726,9.6974 -29.4129,23.3541 -37.8998,40.936 -8.4934,17.8761 -12.7403,37.298 -12.7403,58.2174 0,22.458 4.8486,42.7754 14.2585,60.3575 9.4099,17.589 23.3541,30.9311 41.5446,40.341 13.9442,7.2627 31.2389,10.9009 51.8437,10.9009 26.9921,0 48.2261,-5.7376 63.4008,-16.9804 15.1475,-11.222 24.8516,-26.9716 29.0914,-46.995 l -43.6643,-8.2063 c -3.0365,10.6135 -8.7809,19.107 -17.2746,25.4807 -8.1995,6.0794 -18.7923,9.1159 -31.5533,9.1159 -19.0865,0 -34.2615,-6.0795 -45.4768,-18.2112 -11.2153,-12.1113 -16.9872,-30.3021 -16.9872,-54.2852 0,-25.7677 5.7719,-45.1825 17.2743,-57.9228 11.2428,-13.0278 26.3971,-19.3944 44.9025,-19.3944 9.0953,0 18.1908,1.8054 27.5939,5.4502 9.0952,3.6451 16.9872,7.8851 23.6477,13.0481 v 27.5803 z m 225.6197,-30.0146 41.5652,-6.9687 c -5.1633,-15.175 -13.6567,-26.6843 -25.1866,-34.8633 -11.5095,-7.8917 -26.0757,-11.8446 -43.0628,-11.8446 -27.5735,0 -47.5969,9.0955 -60.939,26.9921 -10.3263,14.2585 -15.4896,32.4493 -15.4896,54.2851 0,26.0756 6.9959,46.393 20.3383,61.2533 13.6567,14.8604 30.9311,22.1437 51.8434,22.1437 23.3541,0 41.8592,-7.5705 55.2013,-23.0599 13.65,-15.4689 20.0237,-39.4248 19.4219,-71.2652 h -104.0293 c 0.3147,-12.426 3.6383,-21.8084 10.0117,-28.8043 6.3669,-6.9755 14.546,-10.3059 23.9559,-10.3059 6.3666,0 11.8171,1.8122 16.3783,5.4505 4.534,3.3304 7.8919,9.0952 9.9913,16.9872 z m 2.4347,42.1463 c -0.2872,12.1385 -3.3305,21.2338 -9.3827,27.6007 -5.7648,6.3666 -13.055,9.4099 -21.5484,9.4099 -9.0956,0 -16.3786,-3.3577 -22.4309,-10.0117 -5.7716,-6.6884 -8.8081,-15.469 -8.4934,-26.9989 z m 218.357,-91.87 H 4056.48 v 80.3605 c 0,16.9597 -0.9164,27.8878 -2.7286,32.7433 -1.8326,5.1565 -4.5545,8.8013 -8.8013,11.5299 -3.9322,3.0365 -8.7809,4.2469 -14.5457,4.2469 -7.2899,0 -13.6568,-1.8329 -19.4216,-5.7651 -5.7651,-3.932 -9.6973,-9.4099 -11.8242,-15.7833 -2.12,-6.6541 -3.3304,-18.4987 -3.3304,-36.0669 v -71.2653 h -41.5445 v 157.3977 h 38.5083 v -23.0667 c 13.9439,17.589 31.2387,26.3903 52.1581,26.3903 9.0955,0 17.589,-1.5182 25.1592,-4.8487 7.8919,-3.3508 13.6567,-7.5977 17.3018,-12.7335 3.9322,-5.1633 6.654,-10.9281 8.1791,-17.6162 1.8326,-6.3394 2.4344,-15.7495 2.4344,-27.8881 z m 146.1756,0 v 23.6477 c -5.7651,-8.4934 -13.3696,-15.1747 -22.752,-20.0301 -9.0956,-5.1358 -19.1073,-7.5705 -29.4061,-7.5705 -10.6206,0 -20.0236,2.4347 -28.5171,6.9687 -8.4937,4.5612 -14.5457,11.2221 -18.1908,19.709 -3.9597,8.4934 -5.7651,20.0302 -5.7651,34.8905 v 99.7824 h 41.5449 v -72.4964 c 0,-22.123 0.9161,-35.7794 2.4344,-40.6281 1.4978,-5.1633 4.2468,-9.0955 8.1791,-11.8242 4.2468,-3.0361 9.4099,-4.5612 15.4621,-4.5612 7.2899,0 13.6568,2.1268 19.4216,5.7719 5.4504,3.9322 9.3827,8.7806 11.5095,14.5457 2.1197,6.0523 3.0362,20.0234 3.0362,42.7754 v 66.4169 h 41.5445 v -157.3977 z m 81.2769,217.1262 h 41.5446 v -38.5016 h -41.5446 z m 0,-59.7285 h 41.5446 v -157.3977 h -41.5446 z m 227.4253,-157.3977 h -41.5448 v 80.3605 c 0,16.9597 -0.9162,27.8878 -2.7216,32.7433 -1.8329,5.1565 -4.5615,8.8013 -8.7809,11.5299 -3.9597,3.0365 -8.808,4.2469 -14.5731,4.2469 -7.2899,0 -13.6293,-1.8329 -19.3944,-5.7651 -5.7716,-3.932 -9.7245,-9.4099 -11.8514,-15.7833 -2.1197,-6.6541 -3.3233,-18.4987 -3.3233,-36.0669 v -71.2653 h -41.5446 v 157.3977 h 38.5013 v -23.0667 c 13.9714,17.589 31.2457,26.3903 52.1855,26.3903 9.0953,0 17.5822,-1.5182 25.1592,-4.8487 7.892,-3.3508 13.6296,-7.5977 17.2744,-12.7335 3.9597,-5.1633 6.6815,-10.9281 8.1995,-17.6162 1.8124,-6.3394 2.4142,-15.7495 2.4142,-27.8881 z m 133.1204,49.7237 41.572,-6.9687 c -5.163,-15.175 -13.6567,-26.6843 -25.1866,-34.8633 -11.5093,-7.8917 -26.0825,-11.8446 -43.0628,-11.8446 -27.6007,0 -47.6037,9.0955 -60.939,26.9921 -10.3263,14.2585 -15.4689,32.4493 -15.4689,54.2851 0,26.0756 6.9755,46.393 20.3176,61.2533 13.6292,14.8604 30.9243,22.1437 51.8437,22.1437 23.3538,0 41.8589,-7.5705 55.1942,-23.0599 13.6568,-15.4689 20.0237,-39.4248 19.4219,-71.2652 h -104.0225 c 0.3079,-12.426 3.6383,-21.8084 10.012,-28.8043 6.3666,-6.9755 14.5457,-10.3059 23.9556,-10.3059 6.3666,0 11.8171,1.8122 16.3786,5.4505 4.534,3.3304 7.8916,9.0952 9.9842,16.9872 z m 2.4415,42.1463 c -0.294,12.1385 -3.3305,21.2338 -9.4099,27.6007 -5.7444,6.3666 -13.0278,9.4099 -21.5212,9.4099 -9.0953,0 -16.3786,-3.3577 -22.4374,-10.0117 -5.7651,-6.6884 -8.8016,-15.469 -8.4869,-26.9989 z m 148.2956,-21.5212 42.7753,4.2469 c 2.7219,-14.2586 7.8645,-24.872 15.4622,-31.5536 7.8644,-6.6608 18.4779,-9.9913 31.8475,-9.9913 13.9439,0 24.5574,3.0161 31.82,9.0956 6.9687,5.7648 10.6135,12.7403 10.6135,20.9194 0,5.163 -1.4975,9.4099 -4.534,13.0478 -3.043,3.6247 -8.2063,6.6609 -15.7765,9.3895 -4.8487,1.8329 -16.6725,4.8691 -34.884,9.4099 -23.3334,5.7651 -39.7117,13.0482 -49.1216,21.5144 -13.3424,12.1385 -20.0236,26.7117 -20.0236,43.9792 0,10.935 3.0364,21.5485 9.4099,30.9311 6.3669,9.6971 15.175,16.9872 26.992,22.1502 11.8242,5.1633 26.0827,7.5705 42.7553,7.5705 26.9918,0 47.6172,-6.0522 61.274,-18.1907 13.6292,-11.8171 20.9194,-27.8881 21.5212,-48.1987 l -43.9793,-1.5182 c -1.8122,11.1949 -5.7651,19.3944 -11.8241,24.243 -6.3667,4.8484 -15.4619,7.2831 -27.6007,7.2831 -12.7335,0 -22.7245,-2.7218 -29.7204,-7.8849 -4.534,-3.3304 -6.9687,-7.8919 -6.9687,-13.6567 0,-5.1358 2.12,-9.3827 6.6812,-13.0278 5.4505,-4.8483 18.7926,-9.697 40.0199,-14.5729 21.2337,-5.1358 37.0105,-10.2991 47.3093,-15.7493 10.012,-5.4572 18.1908,-12.7406 23.9559,-22.1505 5.7716,-9.0952 8.4935,-20.6251 8.4935,-34.569 0,-12.426 -3.3305,-23.9559 -10.3264,-34.884 -6.948,-10.9075 -16.6657,-18.7923 -29.406,-24.2496 -12.4257,-5.1358 -28.2025,-7.8851 -47.3097,-7.8851 -27.286,0 -48.513,6.3669 -63.0657,19.1072 -14.8601,12.4257 -23.347,30.9243 -26.39,55.1945 z m 304.4826,-20.6251 41.5446,-6.9687 c -5.1631,-15.175 -13.6568,-26.6843 -25.166,-34.8633 -11.53,-7.8917 -26.1031,-11.8446 -43.0835,-11.8446 -27.5732,0 -47.5968,9.0955 -60.939,26.9921 -10.3056,14.2585 -15.4689,32.4493 -15.4689,54.2851 0,26.0756 6.9755,46.393 20.3176,61.2533 13.6568,14.8604 30.9243,22.1437 51.8709,22.1437 23.347,0 41.832,-7.5705 55.1741,-23.0599 13.6497,-15.4689 20.0234,-39.4248 19.4148,-71.2652 h -104.0222 c 0.3076,-12.426 3.638,-21.8084 10.0117,-28.8043 6.3666,-6.9755 14.5457,-10.3059 23.9556,-10.3059 6.3669,0 11.8171,1.8122 16.3786,5.4505 4.5612,3.3304 7.8917,9.0952 10.0117,16.9872 z m 2.414,42.1463 c -0.2872,12.1385 -3.3305,21.2338 -9.3827,27.6007 -5.7716,6.3666 -13.0547,9.4099 -21.5484,9.4099 -9.0953,0 -16.3786,-3.3577 -22.4374,-10.0117 -5.7651,-6.6884 -8.7809,-15.469 -8.4869,-26.9989 z m 114.9573,-91.87 h -41.572 v 157.3977 h 38.5288 v -22.4377 c 6.6812,10.5863 12.7403,17.5618 17.8761,20.9126 5.4776,3.3305 11.2427,4.8487 18.218,4.8487 9.3826,0 18.4779,-2.7218 27.2863,-7.8851 l -12.7406,-36.0942 c -7.2831,4.5613 -13.6565,6.6813 -19.7088,6.6813 -5.7651,0 -10.9281,-1.5182 -14.8603,-4.8691 -3.9597,-3.0157 -7.2899,-8.7808 -9.3895,-17.2743 -2.4344,-8.4934 -3.638,-26.0824 -3.638,-52.7598 z m 121.5905,0 -63.3802,157.3977 h 43.6714 l 29.4265,-80.388 8.7877,-26.6843 c 2.12,6.6813 3.6382,11.2221 4.24,13.3422 1.2104,4.5612 2.7287,9.0952 4.5613,13.3421 l 30.0146,80.388 h 42.7757 l -62.7991,-157.3977 z m 125.2561,217.1262 h 41.5449 v -38.5016 h -41.5449 z m 0,-59.7285 h 41.5449 v -157.3977 h -41.5449 z m 221.3731,-46.7079 -40.9428,-7.2899 c -1.2036,8.1788 -4.5615,14.2586 -9.4098,18.5052 -4.8487,3.9322 -11.2156,6.059 -19.0798,6.059 -10.3263,0 -18.5054,-3.6448 -24.5848,-10.6203 -6.3669,-7.2558 -9.3827,-19.3943 -9.3827,-36.0873 0,-18.7925 3.0158,-31.8203 9.3827,-39.7119 6.3666,-7.5977 14.5729,-11.53 25.1866,-11.53 7.8642,0 14.2379,2.4344 19.3941,6.6609 5.1633,4.5544 8.4937,12.4464 10.6206,23.3745 l 40.9359,-6.9959 c -4.2468,-18.7926 -12.4188,-33.0511 -24.2702,-42.4338 -12.1113,-9.7246 -28.2024,-14.5732 -48.5133,-14.5732 -23.0394,0 -41.2299,7.2833 -54.8866,21.829 -13.65,14.5729 -20.6255,34.5759 -20.6255,60.3644 0,26.0756 6.9755,46.3932 20.6255,60.6518 13.6567,14.5457 32.1619,21.829 55.4884,21.829 19.1345,0 34.5762,-4.2469 45.8119,-12.4464 11.2223,-8.1791 19.4012,-20.6047 24.2498,-37.5851 z m 122.5276,-60.9661 41.5445,-6.9687 c -5.163,-15.175 -13.6499,-26.6843 -25.1866,-34.8633 -11.5025,-7.8917 -26.0757,-11.8446 -43.0353,-11.8446 -27.6282,0 -47.6244,9.0955 -60.9665,26.9921 -10.2988,14.2585 -15.4621,32.4493 -15.4621,54.2851 0,26.0756 6.9687,46.393 20.3108,61.2533 13.6567,14.8604 30.9311,22.1437 51.8437,22.1437 23.381,0 41.8592,-7.5705 55.2013,-23.0599 13.6568,-15.4689 20.0234,-39.4248 19.4216,-71.2652 h -104.029 c 0.3144,-12.426 3.6448,-21.8084 10.0117,-28.8043 6.3666,-6.9755 14.5457,-10.3059 23.9556,-10.3059 6.3669,0 11.8239,1.8122 16.3786,5.4505 4.5408,3.3304 7.8916,9.0952 10.0117,16.9872 z m 2.414,42.1463 c -0.2872,12.1385 -3.3305,21.2338 -9.4099,27.6007 -5.7376,6.3666 -13.0275,9.4099 -21.5144,9.4099 -9.0953,0 -16.3851,-3.3577 -22.4374,-10.0117 -5.7651,-6.6884 -8.7809,-15.469 -8.4937,-26.9989 z m 60.3646,-47.5968 41.8524,6.3666 c 1.8122,-7.8848 5.457,-14.2585 10.9074,-18.1908 5.4777,-4.2672 13.0275,-6.3666 22.752,-6.3666 10.6138,0 18.7926,2.0994 24.2431,6.0523 3.645,2.7286 5.4776,6.3734 5.4776,10.9074 0,3.3511 -0.9164,5.7651 -3.043,7.8851 -2.12,2.1269 -6.6815,3.9595 -13.9442,5.4777 -33.3654,7.577 -54.8798,14.2379 -63.6879,20.3176 -12.4257,8.7806 -18.8198,20.5977 -18.8198,35.458 0,13.9714 5.4777,25.1867 16.0911,34.5762 10.9078,9.4099 27.6007,13.9646 50.0383,13.9646 21.5212,0 37.5849,-3.6383 48.2259,-10.6138 10.2991,-6.9684 17.5889,-17.2947 21.5212,-31.2386 l -39.1102,-7.2902 c -1.518,6.0798 -4.8484,10.9282 -9.7175,14.2586 -4.5411,3.3579 -11.2223,4.8487 -20.0032,4.8487 -10.9278,0 -18.8198,-1.4908 -23.6684,-4.5341 -3.3305,-2.12 -4.8484,-5.163 -4.8484,-8.4934 0,-3.0365 1.5179,-5.478 4.2466,-7.5705 3.645,-2.7558 16.6725,-6.6881 38.8162,-11.8514 22.4373,-4.8483 37.8995,-11.2152 46.7076,-18.4983 8.7809,-7.2626 13.0549,-17.5686 13.0549,-30.9311 0,-14.2313 -6.0794,-26.6842 -18.218,-37.298 -11.817,-10.2988 -29.7206,-15.4621 -53.3619,-15.4621 -21.5484,0 -38.5081,4.2469 -50.9544,13.0481 -12.4257,8.4938 -20.6252,20.3177 -24.5574,35.178 z m 336.9319,-107.9615 h -28.5171 c -15.1543,22.7523 -26.6842,46.3933 -34.8837,70.9509 -7.8919,24.5846 -11.8242,48.5198 -11.8242,71.5797 0,28.4899 4.8487,55.4887 14.546,80.9626 8.8081,21.8355 19.4216,42.461 32.4766,60.9661 h 28.4896 c -13.6568,-29.7204 -23.0392,-55.2013 -28.2025,-76.1411 -4.8486,-21.2066 -7.5773,-43.35 -7.5773,-66.7038 0,-16.3786 1.5251,-32.764 4.5411,-49.7443 3.0362,-16.9597 7.2831,-33.3451 12.4461,-48.5198 3.6451,-10.012 9.6973,-24.5577 18.5054,-43.3503 z m 32.1347,63.6883 v 217.1262 h 70.3488 c 26.6774,0 43.9793,-0.9164 52.1581,-3.3304 12.4463,-3.0365 22.7454,-10.3195 31.2389,-21.2273 8.2063,-10.9281 12.4257,-24.872 12.4257,-42.1735 0,-13.3353 -2.414,-24.5577 -7.2624,-33.653 -4.8487,-9.0955 -10.9281,-16.3785 -18.1908,-21.5211 -7.5977,-5.1631 -15.175,-8.4867 -22.7452,-10.3196 -10.6205,-1.8122 -25.7952,-3.0158 -45.5043,-3.0158 h -28.4896 v -81.8855 z m 43.9792,180.4368 v -61.8826 h 23.9556 c 17.2744,0 28.8043,1.2311 34.5691,3.3509 5.7447,2.4142 10.3059,6.059 13.6295,10.9077 3.3577,4.8486 4.8487,10.3263 4.8487,16.9804 0,7.8916 -2.4072,14.2585 -6.9687,19.4215 -4.534,5.1427 -10.2988,8.4935 -17.589,9.6971 -5.163,0.9164 -15.4621,1.525 -31.2182,1.525 z m 201.3495,-180.4368 -63.3804,157.3977 h 43.6645 l 29.4336,-80.388 8.7806,-26.6843 c 2.1268,6.6813 3.6451,11.2221 4.2469,13.3422 1.2104,4.5612 2.7286,9.0952 4.5615,13.3421 l 30.0146,80.388 h 42.7686 l -62.7922,-157.3977 z m 197.1232,157.3977 v -33.0784 h -28.5171 v -63.6675 c 0,-13.0482 0.3146,-20.6255 0.9164,-22.7523 0.6086,-2.12 1.8326,-3.638 3.6448,-5.163 1.8329,-1.5183 4.2469,-2.1201 6.9755,-2.1201 3.9527,0 9.4031,1.2308 16.9804,3.9595 l 3.3304,-32.1619 c -9.6973,-4.2469 -20.6047,-6.3669 -32.7364,-6.3669 -7.5773,0 -14.2586,1.2036 -20.3176,3.6383 -6.0795,2.7286 -10.3264,6.059 -13.0482,10.0116 -3.043,3.9323 -4.8487,9.3895 -6.0591,16.3854 -0.6222,4.8487 -1.2308,14.5457 -1.2308,29.4061 v 68.8308 h -19.1072 v 33.0784 h 19.1072 v 31.2114 l 41.5446,24.5642 v -55.7756 z m 17.3015,-221.086 c 8.1723,17.589 13.9442,30.9311 17.2676,40.3342 3.3304,9.3895 6.6608,20.3176 9.4101,32.4493 3.043,12.426 5.1427,23.9556 6.3735,34.8634 1.4907,10.9281 2.12,22.4376 2.12,33.9675 0,23.3538 -2.4347,45.4972 -7.5977,66.7038 -5.1426,20.9398 -14.2381,46.4207 -27.8878,76.1411 h 28.2024 c 14.8604,-21.227 26.6775,-43.6646 34.8563,-67.333 8.2065,-23.9556 12.4531,-47.9112 12.4531,-72.4689 0,-20.632 -3.3304,-42.7754 -9.7038,-66.4166 -7.5977,-26.3971 -19.709,-52.4727 -36.6894,-78.2408 z m 198.6211,63.6883 v 215.3208 h 43.979 v -178.6453 h 108.8779 v -36.6755 z m 255.655,157.3977 v -33.0784 h -28.5171 v -63.6675 c 0,-13.0482 0.3147,-20.6255 0.9164,-22.7523 0.6018,-2.12 1.8054,-3.638 3.6448,-5.163 1.8054,-1.5183 4.2401,-2.1201 6.9687,-2.1201 3.9323,0 9.3827,1.2308 16.9872,3.9595 l 3.3233,-32.1619 c -9.697,-4.2469 -20.6251,-6.3669 -32.7568,-6.3669 -7.5773,0 -14.2379,1.2036 -20.3176,3.6383 -6.052,2.7286 -10.2989,6.059 -13.0275,10.0116 -3.0365,3.9323 -4.8487,9.3895 -6.0795,16.3854 -0.6018,4.8487 -1.2036,14.5457 -1.2036,29.4061 v 68.8308 h -19.1072 v 33.0784 h 19.1072 v 31.2114 l 41.5446,24.5642 v -55.7756 z m 173.4548,-157.3977 h -38.5288 v 23.0392 c -6.3394,-8.8013 -13.9442,-15.7766 -22.7248,-20.3106 -8.8013,-4.5615 -17.5821,-6.6815 -26.3902,-6.6815 -18.1908,0 -33.6529,7.2833 -46.7079,21.829 -13.0275,14.5729 -19.3944,34.8905 -19.3944,61.2808 0,26.6842 6.3669,46.995 18.7926,60.6243 12.7403,13.9714 28.5171,20.9401 47.6243,20.9401 17.5887,0 33.0509,-7.2833 45.7844,-21.829 v 78.2339 h 41.5448 z m -110.9979,81.8855 c 0,-17.0143 2.4347,-29.1189 6.9755,-36.7234 6.6812,-10.9006 16.0914,-16.3578 28.2024,-16.3578 9.4031,0 17.6094,4.2465 24.2635,12.4256 6.6883,8.2063 10.0117,20.3176 10.0117,36.4088 0,18.1907 -3.3234,31.2185 -9.6971,39.418 -6.6812,7.8916 -14.8603,11.8239 -24.872,11.8239 -10.0117,0 -18.1908,-3.9323 -24.872,-11.8239 -6.6816,-7.8919 -10.012,-19.7365 -10.012,-35.1712 z" /><path
       id="path24"
       style="fill:#373535;fill-opacity:1;fill-rule:nonzero;stroke:#373535;stroke-width:1.00010002;stroke-linecap:butt;stroke-linejoin:miter;stroke-miterlimit:10.00000095;stroke-dasharray:none;stroke-opacity:1"
       d="m 1182.1833,1565.5204 c -35.8926,0 -68.0544,6.7127 -97.9464,20.1152 -29.15,13.3951 -53.8353,31.8472 -74.7669,56.9744 -20.9318,24.3178 -37.3986,54.472 -49.3477,89.653 -11.2,35.2035 -17.2009,75.4263 -17.2009,118.9829 0,42.7325 5.229,81.2698 16.4366,116.4733 10.4959,35.2034 26.191,65.3576 46.3811,90.4921 20.9319,25.1345 45.5944,45.2423 74.7672,58.6448 29.8916,14.2419 62.7953,20.9543 100.1712,20.9543 29.9143,0 58.3005,-4.1953 83.7496,-13.3951 25.3968,-8.4056 47.1002,-20.9617 65.7845,-36.8666 18.6843,-16.7887 33.6453,-36.0499 45.5871,-58.6749 11.2374,-23.4414 18.714,-49.4226 20.9616,-77.9136 h -94.223 c -1.4758,15.0882 -5.2291,28.491 -11.2,41.0471 -5.9783,11.732 -14.2192,21.8007 -24.6852,30.1765 -10.4434,8.3832 -23.1568,15.0956 -37.376,19.2685 -14.2191,4.1805 -29.8919,6.69 -47.8343,6.69 -21.6961,0 -41.152,-4.1802 -58.3305,-12.556 -17.2009,-9.2223 -32.1616,-21.7783 -44.1111,-38.5297 -11.9715,-16.759 -21.6657,-36.8742 -28.4082,-62.0311 -6.7425,-24.2881 -10.4661,-51.9324 -10.4661,-83.7796 0,-31.0006 3.7236,-59.4916 10.4661,-83.7794 6.7425,-24.2881 16.4367,-45.25 29.15,-62.0014 11.9719,-16.759 27.6744,-29.3374 44.8753,-37.7206 17.9201,-8.3758 37.376,-12.5487 59.7836,-12.5487 27.6967,0 52.3595,5.0196 74.0253,14.2194 20.9319,10.0687 38.882,24.3105 53.1011,43.579 v 68.7138 H 1200.126 v 82.933 h 204.111 v -289.8984 h -59.8062 l -14.2192,48.6063 c -16.4367,-18.4221 -37.3685,-32.6937 -61.3193,-42.7403 -24.6552,-10.0686 -53.0637,-15.0882 -86.709,-15.0882 z" /><path
       id="path26"
       style="fill:#373535;fill-opacity:1;fill-rule:nonzero;stroke:#373535;stroke-width:1.00010002;stroke-linecap:butt;stroke-linejoin:miter;stroke-miterlimit:10.00000095;stroke-dasharray:none;stroke-opacity:1"
       d="m 697.591,1891.4837 c 32.7461,0 64.0913,5.5814 80.6856,19.4785 16.6241,13.9045 24.9996,30.1541 24.9996,48.786 0,12.0316 -3.5359,22.1527 -10.4882,30.6334 -6.9525,8.3531 -19.2163,15.6725 -36.6344,21.8084 -11.9194,4.2253 -39.0092,11.5446 -81.4271,22.1453 -54.5471,13.6647 -92.8446,30.3937 -114.8851,50.2918 -31.0005,27.9365 -46.4111,61.9786 -46.4111,102.179 0,25.7939 7.2969,50.0519 21.7783,72.572 14.6163,22.4901 35.6006,39.5862 63.0351,51.378 27.457,11.7845 60.473,17.6505 99.3473,17.6505 63.2673,0 110.9744,-14.002 142.9265,-42.1784 32.0343,-28.1461 48.7633,-65.6195 50.404,-112.6375 l -102.4937,-3.5209 c -4.3603,26.1683 -13.665,44.8826 -27.9366,56.3224 -14.2415,11.4174 -35.6754,17.2083 -64.1962,17.2083 -29.4647,0 -52.5691,-6.1356 -69.1634,-18.3994 -10.728,-7.8965 -16.1521,-18.3623 -16.1521,-31.5777 0,-12.024 5.0794,-22.28 15.2008,-30.7683 12.8407,-10.9378 44.0586,-22.2503 93.661,-34.0348 49.6099,-11.6569 86.2667,-23.9207 109.9479,-36.4243 23.7864,-12.5788 42.4182,-29.6748 55.8431,-51.4831 13.4252,-21.7783 20.1677,-48.6511 20.1677,-80.5805 0,-28.9928 -8.0385,-56.1878 -24.1832,-81.5321 -16.1221,-25.3443 -38.9044,-44.1411 -68.3167,-56.4273 -29.4948,-12.3389 -92.1852,-18.4969 -136.139,-18.4969 -29.4721,0 -33.4352,-3.3565 -50.0295,-15.5979 -10.728,-7.9036 -16.1521,-18.3921 -16.1521,-31.5774 0,-12.0317 5.0794,-22.2803 15.2008,-30.7684 12.8407,-10.9378 44.0586,-22.2503 93.661,-34.0421 49.6099,-11.6796 86.2667,-23.9136 109.9479,-36.4173 23.7864,-12.6085 42.4182,-29.6818 55.8431,-51.4828 13.4252,-21.8007 20.1677,-48.6584 20.1677,-80.5805 0,-28.993 -8.0385,-56.2178 -24.1832,-81.532 -16.1221,-25.352 -38.8817,-44.1936 -68.3167,-56.4574 -29.4724,-12.369 -66.2341,-18.4969 -110.1577,-18.4969 -64.0165,0 -113.1171,14.7736 -147.4215,44.3208 -34.2518,29.4647 -54.6593,84.0416 -61.3944,140.4692 l 99.6919,-1.6931 c 5.9933,-33.3531 18.0176,-57.7163 36.2824,-73.3887 18.2647,-15.6728 42.8972,-23.4414 73.868,-23.4414 32.7761,0 57.5135,6.9222 74.1078,20.8494 16.6241,13.9045 24.9996,30.1538 24.9996,48.7632 0,12.0243 -3.5359,22.1678 -10.4882,30.6559 -6.9525,8.3534 -19.2163,15.6427 -36.6344,21.7786 -11.9194,4.255 -39.0092,11.5446 -81.4271,22.1453 -54.5471,13.6874 -92.8446,30.4237 -114.8851,50.3215 -31.0005,27.9366 -46.4111,61.979 -46.4111,102.1493 0,25.8163 7.2969,50.082 21.7783,72.6021 14.6163,22.4898 35.6006,39.5858 63.0351,51.3479 27.457,11.7845 60.473,17.6803 99.3473,17.6803 z" /><path
       id="path28"
       style="fill:#373535;fill-opacity:1;fill-rule:nonzero;stroke:#373535;stroke-width:1.00010002;stroke-linecap:butt;stroke-linejoin:miter;stroke-miterlimit:10.00000095;stroke-dasharray:none;stroke-opacity:1"
       d="m 1632.9807,1891.4837 c 32.7461,0 64.0913,5.5814 80.7154,19.4785 16.6241,13.9045 24.9698,30.1541 24.9698,48.786 0,12.0316 -3.5359,22.1527 -10.4658,30.6334 -6.9749,8.3531 -19.2387,15.6725 -36.6568,21.8084 -11.8893,4.2253 -39.0092,11.5446 -81.4271,22.1453 -54.5471,13.6647 -92.8446,30.3937 -114.8851,50.2918 -30.9782,27.9365 -46.4111,61.9786 -46.4111,102.179 0,25.7939 7.2969,50.0519 21.8083,72.572 14.609,22.4901 35.5706,39.5862 63.0275,51.378 27.4646,11.7845 60.4432,17.6505 99.3249,17.6505 63.2673,0 110.9968,-14.002 142.9265,-42.1784 32.0567,-28.1461 48.7857,-65.6195 50.4264,-112.6375 l -102.4937,-3.5209 c -4.3827,26.1683 -13.6874,44.8826 -27.9366,56.3224 -14.2716,11.4174 -35.7052,17.2083 -64.2186,17.2083 -29.4423,0 -52.5393,-6.1356 -69.1634,-18.3994 -10.7056,-7.8965 -16.122,-18.3623 -16.122,-31.5777 0,-12.024 5.0493,-22.28 15.1707,-30.7683 12.8407,-10.9378 44.081,-22.2503 93.691,-34.0348 49.5799,-11.6569 86.2367,-23.9207 109.9179,-36.4243 23.8088,-12.5788 42.418,-29.6748 55.8431,-51.4831 13.4552,-21.7783 20.1677,-48.6511 20.1677,-80.5805 0,-28.9928 -8.0085,-56.1878 -24.1606,-81.5321 -16.1447,-25.3443 -38.9043,-44.1411 -68.3467,-56.4273 -29.4947,-12.3389 -92.1852,-18.4969 -136.1092,-18.4969 -29.4647,0 -33.4278,-3.3565 -50.0519,-15.5979 -10.7056,-7.9036 -16.122,-18.3921 -16.122,-31.5774 0,-12.0317 5.0493,-22.2803 15.1707,-30.7684 12.8407,-10.9378 44.081,-22.2503 93.691,-34.0421 49.5799,-11.6796 86.2367,-23.9136 109.9179,-36.4173 23.8088,-12.6085 42.418,-29.6818 55.8431,-51.4828 13.4552,-21.8007 20.1677,-48.6584 20.1677,-80.5805 0,-28.993 -8.0085,-56.2178 -24.1606,-81.532 -16.1447,-25.352 -38.9043,-44.1936 -68.3467,-56.4574 -29.4423,-12.369 -66.2267,-18.4969 -110.1804,-18.4969 -63.9564,0 -113.0644,14.7736 -147.3914,44.3208 -34.2521,29.4647 -54.6593,81.1349 -61.372,137.5923 l 99.6622,1.1838 c 6.0307,-33.3531 18.0547,-57.7163 36.3194,-73.3887 18.2574,-15.6728 42.8675,-23.4414 73.8681,-23.4414 32.7463,0 57.4837,6.9222 74.1078,20.8494 16.6241,13.9045 24.9698,30.1538 24.9698,48.7632 0,12.0243 -3.5359,22.1678 -10.4658,30.6559 -6.9749,8.3534 -19.2387,15.6427 -36.6568,21.7786 -11.8893,4.255 -39.0092,11.5446 -81.4271,22.1453 -54.5471,13.6874 -92.8446,30.4237 -114.8851,50.3215 -30.9782,27.9366 -46.4111,61.979 -46.4111,102.1493 0,25.8163 7.2969,50.082 21.8083,72.6021 14.609,22.4898 35.5706,39.5858 63.0275,51.3479 27.4646,11.7845 60.4432,17.6803 99.3249,17.6803 z" /><path
       id="path30"
       style="fill:#373535;fill-opacity:1;fill-rule:evenodd;stroke:#373535;stroke-width:1.00010002;stroke-linecap:butt;stroke-linejoin:miter;stroke-miterlimit:10.00000095;stroke-dasharray:none;stroke-opacity:1"
       d="m 457.8197,1332.1395 h 1426.2151 v -83.2777 H 457.8197 Z" /><path
       id="path32"
       style="fill:#373535;fill-opacity:1;fill-rule:nonzero;stroke:#373535;stroke-width:0.56690001;stroke-linecap:butt;stroke-linejoin:miter;stroke-miterlimit:22.9260025;stroke-dasharray:none;stroke-opacity:1"
       d="m 457.8197,1332.1395 h 1426.2151 v -83.2777 H 457.8197 Z" /><path
       id="path34"
       style="fill:#373535;fill-opacity:1;fill-rule:evenodd;stroke:#373535;stroke-width:1.00010002;stroke-linecap:butt;stroke-linejoin:miter;stroke-miterlimit:10.00000095;stroke-dasharray:none;stroke-opacity:1"
       d="m 457.8197,1173.9373 h 1426.2151 v -83.2776 H 457.8197 Z" /><path
       id="path36"
       style="fill:#373535;fill-opacity:1;fill-rule:nonzero;stroke:#373535;stroke-width:0.56690001;stroke-linecap:butt;stroke-linejoin:miter;stroke-miterlimit:22.9260025;stroke-dasharray:none;stroke-opacity:1"
       d="m 457.8197,1173.9373 h 1426.2151 v -83.2776 H 457.8197 Z" /></g></svg>
