<?xml version="1.0" standalone="no"?>
<!DOCTYPE svg PUBLIC "-//W3C//DTD SVG 20010904//EN"
 "http://www.w3.org/TR/2001/REC-SVG-20010904/DTD/svg10.dtd">
<svg version="1.0" xmlns="http://www.w3.org/2000/svg"
 width="262.000000pt" height="288.000000pt" viewBox="0 0 262.000000 288.000000"
 preserveAspectRatio="xMidYMid meet">

<g transform="translate(0.000000,288.000000) scale(0.100000,-0.100000)"
fill="#000000" stroke="none">
<path d="M1118 2240 c-252 -46 -476 -194 -612 -405 -147 -229 -168 -544 -52
-796 80 -175 249 -341 431 -424 144 -66 210 -79 390 -79 180 0 252 14 392 79
181 84 350 250 429 424 117 254 96 563 -55 801 -114 181 -302 317 -522 380
-83 24 -316 36 -401 20z m377 -34 c399 -112 655 -432 655 -816 0 -373 -247
-692 -625 -806 -82 -24 -105 -27 -250 -27 -144 0 -169 3 -248 27 -311 94 -532
319 -606 618 -90 367 95 754 446 932 88 44 201 80 283 90 66 8 295 -4 345 -18z"/>
<path d="M1226 2169 c-46 -36 -23 -109 34 -109 61 0 80 93 24 119 -31 14 -27
15 -58 -10z m59 -49 c0 -31 -3 -35 -25 -35 -19 0 -26 6 -28 23 -5 36 5 54 30
50 19 -2 23 -9 23 -38z"/>
<path d="M1359 2179 c0 -2 -2 -13 -3 -24 -1 -11 -6 -37 -10 -57 -7 -41 11 -56
21 -17 8 30 49 22 45 -8 -2 -16 2 -23 13 -23 12 0 16 8 14 28 -2 15 0 33 5 40
11 18 -3 52 -22 52 -9 0 -27 3 -39 6 -13 4 -23 5 -24 3z m59 -42 c2 -11 -3
-17 -17 -17 -23 0 -35 15 -26 31 10 15 39 6 43 -14z"/>
<path d="M1046 2153 c-26 -4 -28 -7 -23 -36 14 -84 38 -104 85 -71 28 19 29
67 2 94 -11 11 -23 19 -27 19 -5 -1 -21 -4 -37 -6z m59 -47 c8 -23 6 -30 -10
-42 -27 -20 -29 -19 -42 23 -9 29 -9 40 0 45 21 14 41 4 52 -26z"/>
<path d="M1496 2129 c-51 -40 -24 -121 35 -106 10 3 17 1 13 -4 -3 -5 -1 -9 5
-9 18 0 26 51 10 61 -19 12 -29 11 -29 -1 0 -5 5 -10 11 -10 5 0 7 -4 4 -10
-10 -16 -45 -12 -52 6 -9 24 14 64 37 64 11 0 23 -7 26 -15 8 -19 24 -20 24
-1 0 14 -36 46 -51 46 -3 0 -18 -9 -33 -21z"/>
<path d="M940 2113 c-19 -8 -36 -16 -38 -18 -1 -1 7 -27 19 -57 l21 -56 39 17
c21 9 39 20 39 25 0 8 -18 5 -52 -9 -14 -5 -18 -2 -18 13 0 13 9 22 25 26 14
4 25 11 25 17 0 9 -16 7 -57 -8 -24 -9 -13 24 12 35 14 6 25 16 25 22 0 5 -1
10 -2 9 -2 0 -19 -7 -38 -16z"/>
<path d="M1623 2044 c-45 -37 -56 -59 -24 -49 26 8 51 -4 51 -26 0 -24 17 -25
24 -1 10 35 11 105 1 108 -5 2 -29 -12 -52 -32z m35 -29 c-2 -10 -7 -12 -17
-5 -13 7 -13 11 -1 25 15 18 24 8 18 -20z"/>
<path d="M805 2038 l-27 -24 29 -47 c15 -25 34 -47 41 -47 14 0 16 16 2 25
-16 10 -12 32 7 39 11 5 22 1 30 -9 6 -10 17 -14 23 -10 8 5 6 13 -6 26 -9 11
-22 29 -28 41 -16 31 -39 33 -71 6z m55 -17 c0 -5 -7 -14 -15 -21 -18 -15 -42
1 -31 19 8 13 46 15 46 2z"/>
<path d="M1722 1981 c-47 -58 -43 -85 4 -33 l26 27 -6 -47 c-3 -26 -2 -50 3
-52 11 -7 86 83 77 91 -3 4 -18 -4 -32 -18 l-26 -24 3 44 c2 25 -1 46 -7 48
-6 2 -25 -14 -42 -36z"/>
<path d="M1155 2001 c-243 -41 -444 -215 -512 -445 -23 -78 -19 -245 7 -326
70 -211 237 -360 472 -420 66 -17 289 -9 353 14 116 39 179 79 265 166 125
125 180 251 180 411 -2 269 -193 512 -462 585 -65 18 -235 26 -303 15z m270
-23 c71 -15 201 -78 262 -127 100 -80 178 -206 208 -336 20 -88 19 -146 -5
-239 -28 -112 -73 -190 -160 -277 -120 -122 -281 -189 -453 -189 -180 0 -341
65 -462 186 -121 121 -175 246 -175 407 0 165 59 297 187 417 160 149 372 206
598 158z"/>
<path d="M1173 1892 c-9 -5 2 -30 36 -87 26 -44 52 -79 56 -79 5 1 30 38 56
82 46 77 47 80 26 86 -32 8 -160 7 -174 -2z m143 -25 c2 -2 -8 -25 -22 -51
l-26 -47 -33 48 c-28 42 -30 49 -16 55 16 7 89 4 97 -5z"/>
<path d="M1060 1845 c0 -16 25 -55 36 -55 9 0 9 7 -2 30 -13 25 -34 41 -34 25z"/>
<path d="M1437 1810 c-9 -16 -11 -32 -7 -35 8 -5 40 44 40 60 0 16 -21 1 -33
-25z"/>
<path d="M969 1782 c13 -25 40 -46 48 -38 7 7 -36 56 -49 56 -5 0 -4 -8 1 -18z"/>
<path d="M1532 1767 c-24 -25 -28 -37 -12 -37 11 0 45 48 38 55 -2 3 -14 -5
-26 -18z"/>
<path d="M886 1722 c-3 -5 8 -18 24 -30 16 -12 31 -18 33 -14 6 10 -51 54 -57
44z"/>
<path d="M1610 1700 c-14 -10 -22 -22 -18 -25 8 -8 58 24 58 36 0 14 -13 10
-40 -11z"/>
<path d="M1228 1647 c-20 -34 -82 -138 -136 -232 l-100 -170 276 -3 c151 -1
277 -1 279 2 4 3 -139 243 -178 298 -11 14 -19 29 -19 32 0 5 -75 125 -83 133
-2 1 -19 -26 -39 -60z m127 -152 c80 -125 136 -218 133 -220 -10 -9 -433 -9
-435 0 -1 6 45 90 104 188 l106 178 30 -48 c16 -26 44 -70 62 -98z"/>
<path d="M1142 1378 c-16 -16 -15 -53 3 -68 18 -15 52 -4 60 20 13 43 -33 78
-63 48z m48 -32 c0 -32 -18 -43 -37 -23 -20 20 -10 47 17 47 15 0 20 -7 20
-24z"/>
<path d="M1280 1370 c0 -13 -7 -20 -20 -20 -11 0 -20 7 -20 16 0 8 -4 12 -10
9 -5 -3 -10 -19 -10 -35 0 -16 5 -32 10 -35 6 -3 10 3 10 14 0 30 37 28 43 -1
2 -13 5 -2 6 25 0 26 -1 47 -4 47 -3 0 -5 -9 -5 -20z"/>
<path d="M1317 1384 c-15 -15 -6 -35 19 -44 30 -12 22 -33 -9 -25 -22 5 -22 5
0 -6 29 -15 60 5 42 27 -6 8 -18 14 -25 14 -8 0 -14 5 -14 11 0 7 9 9 21 6 13
-3 19 -1 16 6 -4 14 -39 21 -50 11z"/>
<path d="M820 1632 c0 -13 50 -33 62 -26 6 4 -4 13 -22 20 -38 16 -40 17 -40
6z"/>
<path d="M1677 1624 c-15 -8 -27 -19 -27 -25 0 -5 15 -2 33 7 40 20 40 21 30
27 -4 3 -20 -1 -36 -9z"/>
<path d="M970 1605 c-6 -8 -10 -22 -8 -31 3 -17 12 -24 61 -43 35 -14 36 -41
2 -41 -14 0 -28 6 -31 13 -6 17 -34 18 -34 1 0 -37 68 -58 102 -31 34 26 19
87 -21 87 -10 0 -26 6 -37 14 -18 14 -18 15 -1 22 10 3 29 1 43 -6 28 -16 42
-7 24 15 -16 19 -84 20 -100 0z"/>
<path d="M1485 1553 c-15 -38 -29 -74 -32 -80 -3 -7 2 -13 10 -13 9 0 19 9 22
20 5 15 15 20 45 20 30 0 40 -5 45 -20 3 -11 13 -20 21 -20 15 0 19 21 6 36
-5 5 -19 35 -32 67 -31 79 -50 77 -85 -10z m59 1 c10 -26 7 -34 -14 -34 -11 0
-20 4 -20 9 0 17 12 41 20 41 4 0 11 -7 14 -16z"/>
<path d="M770 1531 c0 -10 61 -24 69 -16 8 9 -21 25 -46 25 -13 0 -23 -4 -23
-9z"/>
<path d="M1711 1526 c-13 -7 -20 -15 -15 -18 13 -6 76 17 68 25 -10 10 -26 8
-53 -7z"/>
<path d="M760 1431 c0 -11 59 -26 67 -17 9 9 2 12 -34 19 -18 4 -33 2 -33 -2z"/>
<path d="M1710 1420 c0 -13 50 -13 70 0 11 7 4 10 -27 10 -24 0 -43 -4 -43
-10z"/>
<path d="M783 1333 c-24 -5 -32 -23 -10 -23 24 0 57 12 57 21 0 9 -8 10 -47 2z"/>
<path d="M1713 1326 c4 -14 67 -21 67 -8 0 6 -16 12 -35 14 -22 2 -34 0 -32
-6z"/>
<path d="M779 1207 c5 -18 13 -42 20 -54 14 -28 77 -77 89 -69 9 5 92 142 92
151 0 3 -47 5 -104 5 l-104 0 7 -33z m130 -32 c-12 -19 -24 -37 -29 -40 -9 -5
-45 33 -53 58 -6 15 1 17 48 17 l54 0 -20 -35z"/>
<path d="M1572 1218 c8 -13 30 -49 49 -80 18 -32 37 -58 41 -58 16 0 71 56 88
91 35 68 33 69 -86 69 l-106 0 14 -22z m158 -21 c0 -13 -46 -67 -58 -67 -7 0
-52 65 -52 75 0 3 25 5 55 5 38 0 55 -4 55 -13z"/>
<path d="M1210 1175 c0 -11 11 -15 36 -15 l36 0 -41 -49 c-23 -27 -41 -54 -41
-60 0 -7 24 -11 65 -11 37 0 65 4 65 10 0 6 -21 10 -46 10 l-46 0 46 52 c25
29 46 58 46 65 0 9 -18 13 -60 13 -47 0 -60 -3 -60 -15z"/>
<path d="M1547 1064 c-3 -5 5 -21 18 -36 31 -36 40 -22 10 16 -12 15 -25 24
-28 20z"/>
<path d="M952 1037 c-12 -13 -19 -27 -15 -30 7 -8 53 31 53 45 0 15 -16 8 -38
-15z"/>
<path d="M1460 1010 c0 -16 23 -60 32 -60 11 0 10 11 -4 43 -13 26 -28 36 -28
17z"/>
<path d="M1046 980 c-11 -23 -11 -30 -2 -30 11 0 36 39 36 55 0 16 -21 0 -34
-25z"/>
<path d="M1156 964 c-9 -24 -7 -54 4 -54 6 0 10 16 10 35 0 38 -4 44 -14 19z"/>
<path d="M1373 945 c6 -19 13 -35 17 -35 3 0 4 16 2 35 -2 20 -10 35 -17 35
-10 0 -11 -7 -2 -35z"/>
<path d="M1260 935 c0 -19 5 -35 10 -35 6 0 10 16 10 35 0 19 -4 35 -10 35 -5
0 -10 -16 -10 -35z"/>
<path d="M712 1957 l-32 -33 43 -42 43 -42 27 28 c37 38 35 64 -1 28 -24 -22
-31 -24 -40 -13 -9 11 -7 18 8 32 30 27 24 39 -10 19 -38 -23 -50 -11 -20 21
13 14 21 27 19 30 -3 3 -20 -10 -37 -28z"/>
<path d="M1815 1895 c-20 -25 -34 -49 -31 -53 4 -3 26 13 49 36 29 29 38 45
31 52 -8 8 -22 -3 -49 -35z"/>
<path d="M626 1869 c-26 -31 -33 -49 -18 -49 4 0 13 5 19 11 7 7 21 2 46 -21
21 -18 38 -26 42 -20 3 5 -10 24 -29 41 -30 25 -34 34 -26 50 17 30 -5 23 -34
-12z"/>
<path d="M1874 1876 c-18 -13 -18 -16 -2 -50 11 -22 14 -38 7 -41 -16 -10 -39
15 -39 42 0 14 -4 21 -10 18 -28 -17 14 -89 48 -83 21 4 28 54 11 74 -14 17
-6 29 16 21 8 -4 15 -16 15 -27 0 -22 16 -27 23 -7 12 35 -39 74 -69 53z"/>
<path d="M556 1761 c-21 -23 -18 -49 6 -65 14 -8 23 -5 47 18 16 15 31 23 35
18 10 -16 -4 -39 -27 -47 -20 -6 -20 -8 -4 -12 22 -6 57 23 57 47 0 9 -8 24
-18 33 -17 16 -20 15 -42 -8 -27 -28 -56 -34 -46 -9 3 9 6 18 6 20 0 2 7 4 15
4 8 0 15 5 15 10 0 17 -26 11 -44 -9z"/>
<path d="M1908 1743 c-32 -5 -37 -23 -9 -30 24 -6 35 -31 21 -48 -7 -9 -8 -15
-1 -19 12 -8 93 74 88 89 -4 11 -56 15 -99 8z m62 -22 c0 -14 -18 -23 -31 -15
-8 4 -7 9 2 15 18 11 29 11 29 0z"/>
<path d="M515 1670 c-5 -9 30 -27 83 -44 39 -13 23 10 -23 32 -52 25 -52 25
-60 12z"/>
<path d="M2026 1672 c-4 -7 -4 -17 -1 -22 3 -6 -14 -19 -39 -30 -25 -10 -46
-24 -46 -30 0 -13 -1 -13 51 5 38 14 44 14 51 0 15 -25 27 -17 18 13 -17 58
-27 76 -34 64z"/>
<path d="M483 1584 c-15 -24 -15 -29 -2 -53 12 -20 23 -27 56 -29 47 -4 62 13
61 65 -1 26 -5 32 -29 35 -26 4 -29 1 -29 -21 0 -20 2 -23 10 -11 12 19 33 0
28 -26 -4 -25 -66 -26 -82 -2 -8 14 -5 22 14 43 19 20 20 25 7 25 -9 0 -24
-12 -34 -26z"/>
<path d="M2011 1545 c-58 -15 -70 -39 -15 -29 57 10 86 23 79 34 -7 11 -5 11
-64 -5z"/>
<path d="M1987 1472 c-43 -47 8 -115 67 -92 65 24 51 110 -18 110 -19 0 -40
-8 -49 -18z m81 -14 c18 -18 15 -36 -9 -48 -29 -16 -69 -4 -69 20 0 33 54 52
78 28z"/>
<path d="M460 1448 c0 -13 -3 -33 -6 -44 -5 -20 -1 -22 53 -26 37 -3 61 -1 65
6 11 17 9 86 -2 86 -5 0 -10 -16 -10 -35 0 -29 -4 -35 -21 -35 -19 0 -21 4
-15 30 7 36 -11 41 -20 5 -9 -35 -24 -31 -24 5 0 17 -4 30 -10 30 -5 0 -10
-10 -10 -22z"/>
<path d="M558 1344 c-3 -3 -25 -6 -49 -7 l-44 -2 -3 -47 c-3 -47 -3 -48 26
-48 43 0 92 11 92 21 0 5 -11 9 -25 9 -20 0 -25 5 -25 25 0 18 5 25 20 25 11
0 20 7 20 15 0 16 -3 18 -12 9z m-50 -51 c2 -11 -4 -23 -12 -26 -12 -5 -16 1
-16 24 0 35 23 36 28 2z"/>
<path d="M1980 1342 c0 -6 19 -14 43 -18 l42 -7 -47 -21 c-27 -11 -48 -26 -48
-32 0 -11 52 -24 98 -24 38 0 24 18 -20 26 l-43 7 48 21 c60 27 62 46 3 46
-24 0 -51 3 -60 6 -9 3 -16 2 -16 -4z"/>
<path d="M650 1055 c0 -3 8 -18 17 -32 l17 -26 -56 6 c-31 4 -59 3 -62 -2 -7
-11 34 -73 52 -79 10 -3 9 4 -3 28 l-17 33 56 -5 c31 -3 59 -2 61 2 6 9 -43
80 -55 80 -6 0 -10 -2 -10 -5z"/>
<path d="M1853 1010 c0 -22 3 -27 13 -19 8 7 22 4 46 -11 36 -22 48 -25 48
-11 0 8 -90 71 -102 71 -2 0 -5 -13 -5 -30z"/>
<path d="M719 948 c-7 -13 -21 -38 -31 -56 -32 -58 -17 -69 39 -26 38 29 41
24 12 -23 -30 -49 -13 -59 41 -23 25 17 49 31 54 33 5 2 7 9 5 16 -3 9 -15 5
-42 -13 -43 -29 -45 -26 -16 20 19 31 19 35 4 40 -10 4 -26 -2 -40 -16 -34
-31 -40 -20 -15 23 13 21 17 38 11 41 -6 4 -15 -4 -22 -16z"/>
<path d="M1787 949 c-26 -15 -20 -52 12 -83 52 -49 103 -16 71 45 -16 28 -62
49 -83 38z m50 -41 c25 -23 31 -48 11 -48 -16 0 -58 41 -58 57 0 20 21 16 47
-9z"/>
<path d="M1682 858 c-19 -19 -14 -44 14 -77 27 -33 52 -39 72 -19 19 19 14 44
-14 77 -27 33 -52 39 -72 19z m62 -41 c15 -20 17 -30 8 -39 -8 -8 -15 -8 -27
2 -23 19 -37 49 -30 61 10 15 26 7 49 -24z"/>
<path d="M863 833 c-20 -7 -15 -48 7 -68 26 -23 25 -35 -1 -35 -12 0 -23 8
-26 20 -6 22 -23 28 -23 8 1 -35 50 -64 80 -48 27 14 25 36 -6 67 -19 19 -23
28 -14 37 9 8 18 3 36 -19 22 -28 24 -28 24 -8 0 34 -44 60 -77 46z"/>
<path d="M1589 803 c-13 -9 -25 -17 -27 -18 -1 -2 3 -14 9 -29 13 -27 24 -33
34 -16 12 20 36 11 33 -12 -2 -17 -9 -22 -25 -20 -25 4 -32 -13 -9 -21 42 -16
77 24 56 64 -9 17 -18 20 -41 15 -15 -3 -31 -1 -34 4 -3 6 -2 10 2 10 5 0 17
6 28 13 27 20 3 29 -26 10z"/>
<path d="M1037 763 c-3 -5 -9 -24 -15 -43 -5 -19 -13 -43 -17 -52 -5 -13 -2
-18 8 -18 13 0 47 79 47 109 0 13 -17 15 -23 4z"/>
<path d="M1471 733 c-18 -63 -15 -76 14 -69 14 4 25 2 25 -4 0 -5 7 -10 16
-10 10 0 14 6 10 15 -3 8 0 15 6 15 6 0 4 7 -5 18 -8 9 -20 29 -26 45 -14 37
-28 34 -40 -10z m23 -44 c-12 -20 -20 -7 -16 23 5 31 5 31 13 9 5 -12 7 -27 3
-32z"/>
<path d="M1112 738 c-22 -22 -13 -48 23 -65 19 -9 35 -21 35 -25 0 -18 -32
-20 -50 -3 -22 20 -36 15 -27 -9 3 -8 20 -17 38 -21 27 -6 36 -3 51 15 21 26
11 45 -29 61 -13 5 -23 15 -23 24 0 19 29 20 36 0 7 -16 34 -21 34 -6 0 13
-41 41 -60 41 -9 0 -21 -5 -28 -12z"/>
<path d="M1260 720 c-25 -25 -26 -72 -2 -93 26 -24 79 -22 92 2 38 72 -35 146
-90 91z m57 -8 c12 -8 18 -31 15 -63 -3 -28 -35 -33 -54 -9 -22 27 -23 44 -2
64 17 18 24 19 41 8z"/>
</g>
</svg>
